<svg xmlns="http://www.w3.org/2000/svg" width="1014.392" height="673.75" viewBox="0 0 1014.392 673.75" xmlns:xlink="http://www.w3.org/1999/xlink" role="img" artist="Katerina Limpitsouni" source="https://undraw.co/">
  <g id="Group_21" data-name="Group 21" transform="translate(-510 -218.568)">
    <path id="Path_333-659" data-name="Path 333" d="M15.18,488.905a1.709,1.709,0,0,0,1.714,1.714H871.6a1.714,1.714,0,1,0,0-3.429H16.894a1.709,1.709,0,0,0-1.714,1.714Z" transform="translate(516.689 401.698)" fill="#2f2e43"/>
    <path id="Path_334-660" data-name="Path 334" d="M364.1,370.945a29.915,29.915,0,0,1-59.21,0H229.146V538.419H439.84V370.945H364.1Z" transform="translate(610.981 350.471)" fill="#d6d6e3"/>
    <path id="Path_335-661" data-name="Path 335" d="M859.2,529.047H11.746A11.759,11.759,0,0,1,0,517.3V33.657A11.759,11.759,0,0,1,11.746,21.911H859.2A11.76,11.76,0,0,1,870.95,33.657V517.3A11.76,11.76,0,0,1,859.2,529.047Z" transform="translate(510 196.656)" fill="#2f2e41"/>
    <rect id="Rectangle_123" data-name="Rectangle 123" width="829.301" height="467.937" transform="translate(531.869 238.167)" fill="#fff"/>
    <path id="Path_338-662" data-name="Path 338" d="M253.678,172.684H115.943a12.752,12.752,0,0,1,0-25.5H253.678a12.752,12.752,0,0,1,0,25.5Z" transform="translate(632.061 350.458)" fill="#6c63ff"/>
    <path id="Path_339-663" data-name="Path 339" d="M178.5,193.251H112.117a7.773,7.773,0,1,1,0-15.546H178.5a7.773,7.773,0,1,1,0,15.546Z" transform="translate(632.568 363.909)" fill="#d6d6e3"/>
    <path id="Path_340-664" data-name="Path 340" d="M544.913,214.561H110.965a7.773,7.773,0,0,1,0-15.546H544.913a7.773,7.773,0,0,1,0,15.546Z" transform="translate(632.061 373.3)" fill="#d6d6e3"/>
    <path id="Path_341-665" data-name="Path 341" d="M507.576,228.959H110.965a7.773,7.773,0,0,1,0-15.546H507.576a7.773,7.773,0,1,1,0,15.546Z" transform="translate(632.061 392.921)" fill="#d6d6e3"/>
    <path id="Path_342-666" data-name="Path 342" d="M441.8,222.34H6.04c-3.33,0-6.04-2.083-6.04-4.642V26.554c0-2.56,2.709-4.642,6.04-4.642H441.8c3.33,0,6.04,2.083,6.04,4.642V217.7c0,2.56-2.71,4.642-6.04,4.642Z" transform="translate(736.912 238.363)" fill="#e6e6e6"/>
    <path id="Path_343-667" data-name="Path 343" d="M426.387,210.342H5.829c-3.214,0-5.829-1.958-5.829-4.364V26.276c0-2.406,2.615-4.364,5.829-4.364H426.387c3.214,0,5.829,1.958,5.829,4.364v179.7c0,2.406-2.615,4.364-5.829,4.364Z" transform="translate(745 244.362)" fill="#fff"/>
    <g id="Group_13" data-name="Group 13" transform="translate(1283.608 394.547)">
      <path id="Path_99-668" data-name="Path 99" d="M862.083,321.608h0c-22.022,0-39.874,19.812-39.874,44.251v31.05h9.55l5.529-11.5-1.382,11.5h61.381l5.026-10.458-1.256,10.458h6.911V372.53C907.968,344.407,887.425,321.608,862.083,321.608Z" transform="translate(-716.747 -321.608)" fill="#090814"/>
      <path id="Path_100-669" data-name="Path 100" d="M824.631,465.165l-6.623,25.387,61.812-2.208-1.1-20.972S832.358,455.231,824.631,465.165Z" transform="translate(-716.747 -321.609)" fill="#ffb9b9"/>
      <path id="Path_101-670" data-name="Path 101" d="M642.755,494.475l19.868,44.152,18.765-23.18-15.453-30.906Z" transform="translate(-594.475 -249.37)" fill="#ffb9b9"/>
      <path id="Path_102-671" data-name="Path 102" d="M692.426,656.733l2.207,50.774h24.284l-3.312-50.774Z" transform="translate(-594.475 -249.37)" fill="#ffb9b9"/>
      <path id="Path_103-672" data-name="Path 103" d="M786,520.355l11.038,36.425,16.557,176.607s15.453,4.415,26.491-1.1L842.292,708l4.415-139.078s20.972-11.038,18.764-26.491-7.727-36.425-7.727-36.425Z" transform="translate(-716.747 -321.609)" fill="#090814"/>
      <path id="Path_104-673" data-name="Path 104" d="M820.216,767.6h-6.623s-18.764,19.868-25.387,22.076-40.84,20.972-13.246,24.283,45.256-11.038,45.256-11.038,8.83,5.519,20.972,1.1,5.519-17.661,5.519-17.661-6.164-20.187-6.393-20.028S833.462,776.435,820.216,767.6Z" transform="translate(-716.747 -321.609)" fill="#090814"/>
      <ellipse id="Ellipse_23" data-name="Ellipse 23" cx="25.387" cy="25.387" rx="25.387" ry="25.387" transform="translate(112.3 17.724)" fill="#ffb9b9"/>
      <path id="Path_105-674" data-name="Path 105" d="M891.962,397.834l-11.678,9.735-1.567,1.3-1.1,13.245H834.565s5.872-5.088,11.325-10.354c.11-.121.232-.254.364-.375.74-.717,1.4-1.38,2-1.976.32-.331.629-.64.905-.927.453-.475.894-.927,1.336-1.38a.038.038,0,0,0,.011-.022,43.066,43.066,0,0,0,3.179-3.731l.011-.011a12.781,12.781,0,0,0,.74-1.093c3.311-5.519-4.415-16.557-4.415-16.557L874.3,373.55c.85,11.965,10.972,19.957,15.5,22.959C891.124,397.381,891.962,397.834,891.962,397.834Z" transform="translate(-716.746 -321.608)" fill="#ffb9b9"/>
      <path id="Path_106-675" data-name="Path 106" d="M951.567,583.271c-16.557,4.415-17.661-28.7-17.661-28.7l-22.6-45.2a104.518,104.518,0,0,1-9.736-30.32l-5.2-32.657-1.578,1.887v.011l-2.837,1.413-17.241-27.595-4.835-7.727v-8.83l16.557-7.727h6.623s.143-.022.4-.044c3.046-.32,22.871-1.645,23.886,17.7.4,7.594.365,13.886.159,18.822a145.765,145.765,0,0,0,3.85,40.632c1.169,4.794,2.443,8.958,3.718,11.189,4.415,7.727,19.868,68.435,19.868,68.435S968.124,578.856,951.567,583.271Z" transform="translate(-716.747 -321.609)" fill="#ffb9b9"/>
      <path id="Path_107-676" data-name="Path 107" d="M850.018,409.975l-4.183,7.627-2.473,4.515-12.109,22.076s-3.433,2.8-9,6.424c-9.25,6.016-24.416,14.272-39.571,15.652-24.283,2.208-1.1-76.162-1.1-76.162s7.727-30.906,18.764-27.595,2.208,14.349-5.519,35.321-1.1,44.152-1.1,44.152,23.18-14.349,35.321-25.387c6.325-5.751,11.755-7.307,15.5-7.473h.011a14.054,14.054,0,0,1,3.7.287,8.351,8.351,0,0,1,1.766.563Z" transform="translate(-716.747 -321.608)" fill="#ffb9b9"/>
      <path id="Path_109-677" data-name="Path 109" d="M895.826,446.952,894.8,448.3l-16.082,27.9s-20.972-7.727-36.425-9.934a21.647,21.647,0,0,0-22.065,9.9l4.4-17.628-2.373-7.925c-.276-.927-.6-1.954-.938-3.113-3.311-11.038,8.83-23.18,8.83-23.18l14.393-15.2h.011a14.056,14.056,0,0,1,3.7.287c-.6.6-1.258,1.258-2,1.976-.133.121-.254.254-.364.375-4.228,4.316-2.031,5.519-.055,5.839a9.721,9.721,0,0,0,1.976.1c4.6.662,14.68-3.378,22.076-6.755,5.033-2.3,8.83-4.283,8.83-4.283l9.636-8.83,1.446-1.325c1.325.872,2.163,1.325,2.163,1.325h1.1s.143-.022.4-.044l-5.026,3.729a18.685,18.685,0,0,0-7.513,16.183h0Z" transform="translate(-716.746 -321.609)" fill="#d6d6e3"/>
      <path id="Path_110-678" data-name="Path 110" d="M835.669,478.41l-16.137,6.3s-87.619-33.9-100.865-6.3,46.359,93.822,46.359,93.822l26.491-12.142-11.038-33.114s64.02,54.086,90.511,24.283,8.83-71.942,8.83-71.942S863.264,466.269,835.669,478.41Z" transform="translate(-716.746 -321.609)" fill="#090814"/>
      <path id="Path_111-679" data-name="Path 111" d="M789.31,598.724l-9.934,7.727s8.83,35.321,5.519,40.84-9.934,20.972,2.208,19.868,25.387-19.868,26.491-26.491,8.83-26.491,8.83-26.491,13.246-30.906,3.311-32.01-25.757-1.843-25.757-1.843Z" transform="translate(-716.746 -321.609)" fill="#090814"/>
      <path id="Path_112-680" data-name="Path 112" d="M873.419,333.8a20.912,20.912,0,0,0-16.5-8.42h-.783c-15.094,0-27.329,13.658-27.329,30.506h5.057l.817-6.217,1.2,6.217h30l2.513-5.26-.628,5.26h5.9q4.13,20.513-11.87,41.025h10.052l5.026-10.519-1.257,10.519h19.162l3.77-24.195C898.544,354.6,888.016,339.231,873.419,333.8Z" transform="translate(-716.747 -321.608)" fill="#090814"/>
    </g>
    <g id="Group_16" data-name="Group 16" transform="translate(101.705 63.582)">
      <path id="Path_609-681" data-name="Path 609" d="M210.741,444.522h-2.948l.984-57.585h.984Z" transform="translate(530.003 -53.4)" fill="#d6d6e3"/>
      <path id="Path_610-682" data-name="Path 610" d="M390.248,421.927l4.759-7.354a110.278,110.278,0,0,0-4.882-11.428l-3.077,2.486,2.436-3.765c-2.322-4.57-4.149-7.45-4.149-7.45s-9.542,15.038-12.732,30.962l6.107,9.437-6.759-5.46a44.615,44.615,0,0,0-.371,5.593c0,18.858,6.159,34.146,13.756,34.146s13.756-15.289,13.756-34.146a58.66,58.66,0,0,0-3.15-17.621Z" transform="translate(352.952 -124.645)" fill="#d6d6e3"/>
    </g>
    <g id="Group_17" data-name="Group 17" transform="translate(221.585 71.47)">
      <path id="Path_611-683" data-name="Path 611" d="M327.509,440.778h-2.757l.92-53.841h.92Z" transform="translate(529.139 -57.545)" fill="#d6d6e3"/>
      <path id="Path_612-684" data-name="Path 612" d="M505.992,420.139l4.449-6.876a103.073,103.073,0,0,0-4.565-10.685L503,404.9l2.278-3.52c-2.171-4.273-3.879-6.966-3.879-6.966s-8.923,14.062-11.9,28.95l5.705,8.823-6.319-5.105a41.711,41.711,0,0,0-.347,5.23c0,17.632,5.759,31.926,12.862,31.926s12.862-14.3,12.862-31.926a54.846,54.846,0,0,0-2.945-16.475Z" transform="translate(352.952 -124.645)" fill="#d6d6e3"/>
    </g>
    <circle id="Ellipse_94" data-name="Ellipse 94" cx="28.28" cy="28.28" r="28.28" transform="translate(912.081 271.792)" fill="#ff6584"/>
    <g id="Group_15" data-name="Group 15" transform="translate(189.955 213.137)">
      <path id="Path_613-685" data-name="Path 613" d="M260.865,360.777H256.78l1.362-79.806H259.5Z" transform="translate(513.651 -116.982)" fill="#e6e6e6"/>
      <path id="Path_614-686" data-name="Path 614" d="M424.969,223.384l6.6-10.191a152.81,152.81,0,0,0-6.766-15.839l-4.264,3.444,3.377-5.219c-3.22-6.334-5.75-10.325-5.75-10.325s-13.226,20.842-17.645,42.91l8.461,13.079-9.369-7.567a61.82,61.82,0,0,0-.514,7.752c0,26.135,8.536,47.322,19.065,47.322s19.065-21.187,19.065-47.322c0-8.1-1.833-16.579-4.362-24.42Z" transform="translate(352.952 -109.64)" fill="#6c63ff"/>
    </g>
    <g id="Group_19" data-name="Group 19" transform="translate(157.525 79.66)">
      <path id="Path_609-2-687" data-name="Path 609" d="M210.351,436.892h-2.558l.854-49.955h.854Z" transform="translate(528.245 -61.849)" fill="#e6e6e6"/>
      <path id="Path_610-2-688" data-name="Path 610" d="M387.775,418.282l4.128-6.38a95.666,95.666,0,0,0-4.235-9.914L385,404.145l2.114-3.266c-2.015-3.965-3.6-6.463-3.6-6.463s-8.278,13.046-11.045,26.86l5.3,8.187-5.863-4.737a38.7,38.7,0,0,0-.322,4.852c0,16.36,5.343,29.621,11.934,29.621s11.934-13.264,11.934-29.621a50.888,50.888,0,0,0-2.732-15.286Z" transform="translate(352.952 -124.645)" fill="#e6e6e6"/>
    </g>
    <g id="Group_20" data-name="Group 20" transform="translate(291.673 103.072)">
      <path id="Path_609-3-689" data-name="Path 609" d="M209.782,425.783h-1.989l.664-38.846h.664Z" transform="translate(525.687 -74.151)" fill="#e6e6e6"/>
      <path id="Path_610-3-690" data-name="Path 610" d="M384.173,412.974l3.21-4.961a74.4,74.4,0,0,0-3.293-7.709l-2.076,1.677,1.644-2.54c-1.567-3.083-2.8-5.026-2.8-5.026s-6.437,10.144-8.589,20.887l4.119,6.366-4.559-3.683a30.1,30.1,0,0,0-.25,3.773c0,12.721,4.155,23.034,9.28,23.034s9.28-10.314,9.28-23.034a39.571,39.571,0,0,0-2.125-11.887Z" transform="translate(352.952 -124.645)" fill="#e6e6e6"/>
    </g>
  </g>
</svg>