<?xml version="1.0" standalone="no"?>
<!DOCTYPE svg PUBLIC "-//W3C//DTD SVG 1.1//EN" "http://www.w3.org/Graphics/SVG/1.1/DTD/svg11.dtd" >
<svg xmlns="http://www.w3.org/2000/svg">
<metadata>
<json>
<![CDATA[
{
	"fontFamily": "maicons",
	"majorVersion": 1,
	"minorVersion": 0,
	"fontURL": "https://macodeid.com/icons",
	"description": "MAIcons\nFont generated by IcoMoon.",
	"copyright": "MACode ID",
	"designer": "Mikhail Abdillah",
	"license": "MIT",
	"version": "Version 1.0",
	"fontId": "maicons",
	"psName": "maicons",
	"subFamily": "Regular",
	"fullName": "maicons"
}
]]>
</json>
</metadata>
<defs>
<font id="maicons" horiz-adv-x="1024">
<font-face units-per-em="1024" ascent="960" descent="-64" />
<missing-glyph horiz-adv-x="1024" />
<glyph unicode="&#x20;" horiz-adv-x="512" d="" />
<glyph unicode="&#xe900;" glyph-name="add" data-tags="add" d="M832 448c0-17.6-14.4-32-32-32h-256v-256c0-17.6-14.4-32-32-32s-32 14.4-32 32v256h-256c-17.6 0-32 14.4-32 32s14.4 32 32 32h256v256c0 17.6 14.4 32 32 32s32-14.4 32-32v-256h256c17.6 0 32-14.4 32-32z" />
<glyph unicode="&#xe901;" glyph-name="add-circle" data-tags="add-circle" d="M512 864c-229.4 0-416-186.6-416-416s186.6-416 416-416 416 186.6 416 416-186.6 416-416 416zM672 416h-128v-128c0-17.6-14.4-32-32-32s-32 14.4-32 32v128h-128c-17.6 0-32 14.4-32 32s14.4 32 32 32h128v128c0 17.6 14.4 32 32 32s32-14.4 32-32v-128h128c17.6 0 32-14.4 32-32s-14.4-32-32-32z" />
<glyph unicode="&#xe902;" glyph-name="add-circle-outline" data-tags="add-circle-outline" d="M512 32c-229.4 0-416 186.6-416 416s186.6 416 416 416 416-186.6 416-416-186.6-416-416-416zM512 800c-194 0-352-158-352-352s158-352 352-352 352 158 352 352-158 352-352 352zM672 480h-128v128c0 17.6-14.4 32-32 32s-32-14.4-32-32v-128h-128c-17.6 0-32-14.4-32-32s14.4-32 32-32h128v-128c0-17.6 14.4-32 32-32s32 14.4 32 32v128h128c17.6 0 32 14.4 32 32s-14.4 32-32 32z" />
<glyph unicode="&#xe903;" glyph-name="airplane" data-tags="airplane" d="M373.2 32h-53.2c-17.6 0-32 14.4-32 32 0 4.6 1 9 2.8 13.2l129 284.6-193.6 4.2-70.6-85.6c-13.4-16.8-24.2-24.4-51.6-24.4h-35.8c-11.6-0.4-22.4 4.8-29.4 14.2-4.8 6.4-9.4 17.2-4.8 32.8l39.6 142c0.4 1 0.6 2.2 1 3.2 0 0 0 0.2 0 0.2-0.4 1-0.8 2.2-1 3.2l-39.6 143c-4.2 15.2 0.4 25.8 5.2 32.2 6.4 8.6 16.6 13.6 27.2 13.4h37.6c20.4 0 40.4-9.2 52-24l69.2-84.2 194.6 2.8-128.8 284c-7.4 16-0.2 35 16 42.4 4.2 1.8 8.6 2.8 13.2 2.8h53.8c15.2-0.4 29.4-7.6 38.8-19.6l250-304 115.6 3c8.4 0.4 32 0.6 37.4 0.6 110.6 0 176.6-36 176.6-96 0-19-7.6-54-58.2-76.4-29.8-13.2-69.8-19.8-118.4-19.8-5.4 0-28.8 0.2-37.4 0.6l-115.6 3-250.8-304c-9.4-12-23.6-19.2-38.8-19.4z" />
<glyph unicode="&#xe904;" glyph-name="airplane-outline" data-tags="airplane-outline" d="M373.2 32h-53.2c-10.8 0-21 5.6-26.8 14.6-5.8 9.2-6.8 20.6-2.2 30.6l129 284.4-193.6 4.4-70.6-85.6c-13.4-16.6-24.4-24.4-51.8-24.4h-35.8c-16.4 0-25.4 8.8-29.4 14-4.8 6.4-9.4 17.2-4.8 32.8l39.6 142.2c0.2 1 0.6 2 1 3 0 0.2 0 0.2 0 0.4-0.4 1-0.8 2-1 3.2l-39.6 142.8c-4.4 15.2 0.4 25.8 5.2 32.2 6.4 8.6 16.4 13.4 27.2 13.4h37.8c20.4 0 40.4-9.2 52-24l69.2-84.2 194.6 2.8-129.2 284.2c-4.4 10-3.6 21.4 2.2 30.6s16 14.6 26.8 14.6h53.8c0.6 0 1.2 0 1.8 0 14.4-0.8 27.6-7.8 36.4-19.2l250.4-304.4 115.6 3c8.4 0.4 32 0.6 37.4 0.6 110.6 0 176.6-35.8 176.6-96 0-19-7.6-54-58.2-76.4-29.4-13-70.4-19.8-118.4-19.8-5.4 0-28.8 0.2-37.4 0.6l-115.6 3-250.6-304.2c-8.8-11.2-22-18.2-36.4-19-0.6-0.2-1.2-0.2-2-0.2zM219 430.2c0.4 0 0.8 0 1 0l241.4-5.4c10-0.2 19.4-4.4 26.2-11.6 7-7.2 10.6-16.8 10.4-26.6-0.2-4.6-1-9.2-2.8-13.6-0.2-0.2-0.2-0.6-0.4-0.8l-120.2-265.4 246.6 299c10 13 25.8 14 30.6 14 0.2 0 0.6 0 0.8 0l127.8-3.4c0.4 0 0.8 0 1 0 5-0.4 25.6-0.6 34-0.6 79.6 0 112.6 21 112.6 32.2s-33 32-112.6 32c-8.4 0-29.2-0.2-34-0.6-0.4 0-0.8 0-1.2 0l-129.6-3.4c-11.8-0.4-23 5-30 14.4l-246.6 300 121.2-267.2c4-8.8 4.4-18.6 1.2-27.8-3.4-9.2-10-16.6-18.8-20.8-5-2.4-10.6-3.6-16-3.6l-242.6-3.6c-15-0.4-29.4 6.4-38.8 18.2l-73.6 89.6c-0.2 0.2-0.6 0.2-0.8 0.4l29-105.6c5-14.2 5-29.4 0-43.6l-29.8-106.4c0 0 0.2 0 0.2 0 0.2 0.2 0.2 0.4 0.4 0.4 0.2 0.2 0.2 0.4 0.4 0.4l75.2 91.2c9.4 11.6 23.4 18.2 37.8 18.2zM673 368.6c0 0 0 0 0 0s0 0 0 0zM437 496.4c0 0 0 0 0 0s0 0 0 0zM437 496.4c0 0 0 0 0 0s0 0 0 0zM779.4 511.4v0 0zM217.2 531.6c0 0 0 0 0 0s0 0 0 0zM647.8 540c0 0 0 0 0 0s0 0 0 0zM647.8 540c0 0 0 0 0 0s0 0 0 0zM106.8 575.2c0 0 0 0 0 0s0 0 0 0zM105.6 576.4c0 0 0 0 0 0s0 0 0 0zM95.4 611.8c0 0 0 0 0 0s0 0 0 0z" />
<glyph unicode="&#xe905;" glyph-name="alarm" data-tags="alarm" d="M185.6 619.8c-7.2-7.6-17.2-11.8-27.6-11.8-2.6 0-3.4 0.2-4 0.2-11.6 0.8-22.2 6.4-29.4 15.6-12.6 16-28.6 36.2-28.6 74.2 0 71 52.8 129.6 120.6 133.8h1l6.4 0.2c29.6 0 58.4-10.8 81-30 0.8-0.8 1.8-1.6 2.6-2.4 16.6-16.8 16.4-44-0.4-60.6l-121.6-119.2zM807.6 831.8l-6.6 0.2h-1c-29.8 0-58.4-10.8-81-30-18-15.4-20-42.4-4.6-60.4 0.8-0.8 1.6-1.6 2.4-2.4l121.6-119.2c7.2-7.6 17.2-11.8 27.6-11.8 2.6 0 3.4 0 4 0 11.6 0.8 22.2 6.6 29.4 15.6 12.8 16 28.6 36.2 28.6 74.2 0 71-52.8 129.6-120.4 133.8zM855.4 118c12.4-12.6 12-33-0.6-45.2-12.6-12.4-33-12-45.2 0.6l-72.2 72.2c-130.4-108.8-319.8-108.8-450.2 0l-72.2-72.2c-0.2-0.2-0.4-0.4-0.6-0.6-12.6-12.4-33-12-45.2 0.6-12.4 12.6-12 33 0.6 45.2l72.2 72.2c-53 63.2-82 143-81.8 225.2 0 194 158 352 352 352s352-158 352-352c0-82.2-28.8-162-81.6-225.2l72.2-72.2c0.2-0.2 0.4-0.4 0.6-0.6zM544.2 640c0 17.6-14.4 32-32 32s-32-14.4-32-32v-192h-128c-17.6 0-32-14.4-32-32s14.4-32 32-32h160c17.6 0 32 14.4 32 32v224z" />
<glyph unicode="&#xe906;" glyph-name="alarm-outline" data-tags="alarm-outline" d="M186.6 620.8l121 118.8c8.4 8.4 12.8 20 12.4 31.6-0.4 11.8-5.8 23-14.6 30.6l-0.2 0.2c-22.6 19.2-51.2 30-80.8 30.2h-0.6l-6.2-0.2h-1c-67.8-4.2-120.6-63-120.4-134 0-38 15.8-58 28.6-74.2 7-9 17.6-14.8 29-15.8l1.4-0.2h3.6c10.6 0.4 20.8 5.2 27.8 13zM160.2 698c0 37 26.2 67.6 59.8 69.8l4.4 0.2c6.2 0 12.2-1 18-3l-80.8-79.4c-1 3.6-1.4 7.6-1.4 12.4zM807.6 831.8l-7.2 0.2h-0.6c-29.6-0.2-58.4-10.8-80.8-30.2l-0.2-0.2c-8.8-7.8-14.2-18.8-14.6-30.4-0.4-11.8 4-23.4 12.4-31.8l120.8-118.8c7-7.8 17.2-12.6 28-12.8h3.6l1.2 0.2c11.4 1 22 6.6 29 15.6 12.8 16.2 28.6 36.2 28.6 74.2 0.2 71.2-52.6 130-120.2 134zM862.6 685.8l-80.8 79.4c5.8 1.8 11.8 2.8 18 3l4.4-0.2c33.6-2.2 59.8-32.8 59.8-69.8-0.2-5-0.6-9-1.4-12.4zM544.2 640v-224c0-17.6-14.4-32-32-32h-160c-17.6 0-32 14.4-32 32s14.4 32 32 32h128v192c0 17.6 14.4 32 32 32s32-14.4 32-32zM782.6 190.8c51 61 81.6 139.6 81.6 225.2 0 194-158 352-352 352s-352-158-352-352c0-85.6 30.6-164 81.6-225.2l-72.2-72.2c-12.4-12.4-12.4-32.8 0-45.2 6.2-6.2 14.4-9.4 22.6-9.4s16.4 3.2 22.6 9.4l72.2 72.2c61-51 139.6-81.6 225.2-81.6s164 30.6 225.2 81.6l72.2-72.2c6.2-6.2 14.4-9.4 22.6-9.4s16.4 3.2 22.6 9.4c12.4 12.4 12.4 32.8 0 45.2l-72.2 72.2zM512.2 128c-158.8 0-288 129.2-288 288s129.2 288 288 288c158.8 0 288-129.2 288-288s-129.2-288-288-288z" />
<glyph unicode="&#xe907;" glyph-name="albums" data-tags="albums" d="M256 800c0 17.6 14.4 32 32 32h448c17.6 0 32-14.4 32-32s-14.4-32-32-32h-448c-17.6 0-32 14.4-32 32zM224 672h576c17.6 0 32 14.4 32 32s-14.4 32-32 32h-576c-17.6 0-32-14.4-32-32s14.4-32 32-32zM838.2 640h-652.4c-49.6 0-89.8-40.2-89.8-89.8v-396.6c0-49.6 40.2-89.6 89.8-89.8h652.6c49.6 0 89.6 40.2 89.8 89.8v396.6c-0.2 49.6-40.4 89.8-90 89.8z" />
<glyph unicode="&#xe908;" glyph-name="albums-outline" data-tags="albums-outline" d="M838.2 640h-652.4c-49.6 0-89.8-40.2-89.8-89.8v-396.6c0-49.4 40.2-89.8 89.8-89.8h652.6c49.4 0 89.8 40.2 89.8 89.8v396.6c-0.2 49.6-40.4 89.8-90 89.8zM864 153.8c0-14.2-11.6-25.8-25.8-25.8h-652.4c-14.2 0-25.8 11.6-25.8 25.8v396.4c0 14.2 11.6 25.8 25.8 25.8h652.6c14.2 0 25.8-11.6 25.8-25.8v-396.4zM256 800c0 17.6 14.4 32 32 32h448c17.6 0 32-14.4 32-32s-14.4-32-32-32h-448c-17.6 0-32 14.4-32 32zM192 704c0 17.6 14.4 32 32 32h576c17.6 0 32-14.4 32-32s-14.4-32-32-32h-576c-17.6 0-32 14.4-32 32z" />
<glyph unicode="&#xe909;" glyph-name="alert" data-tags="alert" d="M448 766.4c-1 16.4 5 32.4 16.6 44.8 12.4 13.2 29.6 20.8 47.4 20.8s35-7.6 47.4-20.8c11.6-12.4 17.6-28.4 16.6-44.8l-16-431.2c-0.4-26.2-21.8-47.2-48-47.2s-47.6 21.2-48 47.2l-16 431.2zM512 192c-35.2 0-64-28.8-64-64s28.8-64 64-64c35.2 0 64 28.8 64 64s-28.8 64-64 64z" />
<glyph unicode="&#xe90a;" glyph-name="alert-circle" data-tags="alert-circle" d="M512 864c-229.4 0-416-186.6-416-416s186.6-416 416-416 416 186.6 416 416-186.6 416-416 416zM512 224.2c-22 0-40 18-40 40s18 40 40 40c22 0 40-18 40-40s-18-40-40-40zM555.4 626.4l-11.4-244c0-17.6-14.4-32-32-32s-32 14.4-32 32l-11.4 243.8v0.2c-1 24 17.6 44.2 41.6 45.4s44.2-17.6 45.4-41.6c-0.2-1.2-0.2-2.4-0.2-3.8v0z" />
<glyph unicode="&#xe90b;" glyph-name="alert-circle-outline" data-tags="alert-circle-outline" d="M512 864c-229.4 0-416-186.6-416-416s186.6-416 416-416 416 186.6 416 416-186.6 416-416 416zM512 96c-194 0-352 158-352 352s158 352 352 352 352-158 352-352-158-352-352-352zM544 657.8c7.8-8.6 11.8-19.6 11.4-31.2l-11.4-244c-0.8-17-14.8-30.4-32-30.4-17 0-31.2 13.4-32 30.4l-11.4 243.8c0 0 0 0 0 0.2 0 0.6 0 1 0 1.6-0.2 23.8 19 43.6 43 43.8 0.8 0 1.6 0 2.4 0 11.6-0.6 22.2-5.6 30-14.2zM552 264.2c0-22-18-40-40-40s-40 18-40 40c0 22 18 40 40 40s40-18 40-40z" />
<glyph unicode="&#xe90c;" glyph-name="analytics" data-tags="analytics" d="M912 704c-44.2 0-80-35.8-80-80 0-10 1.8-19.8 5.6-29.2l-168.4-168.4c-18.8 7.4-39.6 7.4-58.4 0l-120.4 120.4c16.2 41.2-4 87.6-45.2 103.8s-87.6-4-103.8-45.2c-7.4-18.8-7.4-39.8 0-58.6l-200.2-200.4c-41.2 16.2-87.6-4.2-103.6-45.2s4.2-87.6 45.2-103.6 87.6 4.2 103.6 45.2c7.4 18.8 7.4 39.6 0 58.4l200.4 200.4c18.8-7.4 39.6-7.4 58.4 0l120.4-120.4c-16.2-41.2 4-87.6 45.2-103.8s87.6 4 103.8 45.2c7.4 18.8 7.4 39.8 0 58.6l168.4 168.4c41.2-16.2 87.6 4 103.8 45.2s-4 87.6-45.2 103.8c-9.6 3.6-19.6 5.4-29.6 5.4z" />
<glyph unicode="&#xe90d;" glyph-name="analytics-outline" data-tags="analytics-outline" d="M912 704c-44.2 0-80-35.8-80-80 0-10.4 2-20.2 5.6-29.2l-168.4-168.4c-9 3.6-18.8 5.6-29.2 5.6s-20.2-2-29.2-5.6l-120.4 120.4c3.6 9 5.6 18.8 5.6 29.2 0 44.2-35.8 80-80 80s-80-35.8-80-80c0-10.4 2-20.2 5.6-29.2l-200.4-200.4c-9 3.6-18.8 5.6-29.2 5.6-44.2 0-80-35.8-80-80s35.8-80 80-80 80 35.8 80 80c0 10.4-2 20.2-5.6 29.2l200.4 200.4c9-3.6 18.8-5.6 29.2-5.6s20.2 2 29.2 5.6l120.4-120.4c-3.6-9-5.6-18.8-5.6-29.2 0-44.2 35.8-80 80-80s80 35.8 80 80c0 10.4-2 20.2-5.6 29.2l168.4 168.4c9-3.6 18.8-5.6 29.2-5.6 44.2 0 80 35.8 80 80s-35.8 80-80 80zM112 256c-8.8 0-16 7.2-16 16s7.2 16 16 16 16-7.2 16-16-7.2-16-16-16zM416 560c-8.8 0-16 7.2-16 16s7.2 16 16 16 16-7.2 16-16-7.2-16-16-16zM640 336c-8.8 0-16 7.2-16 16s7.2 16 16 16 16-7.2 16-16-7.2-16-16-16zM912 608c-8.8 0-16 7.2-16 16s7.2 16 16 16 16-7.2 16-16-7.2-16-16-16z" />
<glyph unicode="&#xe90e;" glyph-name="aperture" data-tags="aperture" d="M495.4 688h-322.8c48 67.8 115.2 119.8 192.8 149.2l135.6-135.6c1.4-1.4 2.4-3.6 2.4-5.6 0-4.4-3.6-8-8-8zM341 621.6c-1.4 1.4-3.6 2.4-5.6 2.4h-200.2c-36.8-78.4-48.2-166.6-32.4-251.8l238.2 238.2c3.2 3 3.2 8.2 0 11.2zM685.6 619c1.4 1.4 2.4 3.6 2.4 5.6v200.2c-78.6 36.8-166.6 48-251.8 32.2l238.2-238.2c3-3 8.2-3 11.2 0.2zM921 523.8l-238-238.2c-3.2-3.2-3.2-8.2 0-11.4 1.4-1.4 3.6-2.4 5.6-2.4h200.2c36.8 78.6 48 166.8 32.2 252zM760 456.6c2.2 0 4.2 0.8 5.6 2.4l135.6 135.6c-29.4 77.8-81.4 145-149.4 193v-323c0.2-4.4 3.8-8 8.2-8zM443.4 276.4c3-2.8 7-4.4 11-4.4h119.4c4.2 0 8.4 1.8 11.4 4.8l98.4 100c3 3 4.6 7 4.6 11.2l-0.2 121.6c0 4.2-1.8 8.4-4.8 11.4l-100 98.6c-3 3-7 4.6-11.2 4.6l-121.6-0.2c-4.2 0-8.4-1.8-11.4-4.8l-98.6-100c-3-3-4.6-7-4.6-11.2l0.2-121.6c0-4.4 1.8-8.6 5-11.6l102.4-98.4zM520.6 200c0-2.2 0.8-4.2 2.4-5.6l135.6-135.6c77.6 29.6 144.8 81.6 192.8 149.2h-322.8c-4.4 0-8-3.6-8-8zM338.4 277c-1.4-1.4-2.4-3.6-2.4-5.6v-200.4c78.6-36.8 166.6-48 251.8-32.2l-238.2 238.2c-3 3.2-8.2 3.2-11.2 0zM264 439.4c-2.2 0-4.2-0.8-5.6-2.4l-135.6-135.6c29.4-77.8 81.4-145 149.4-193v323c-0.2 4.4-3.8 8-8.2 8z" />
<glyph unicode="&#xe90f;" glyph-name="aperture-outline" data-tags="aperture-outline" d="M859.8 220c1.4 1.6 2.6 3.4 3.6 5.4 40.8 64.4 64.6 140.8 64.6 222.6 0 31.6-3.6 62.4-10.2 92 0 0.4-0.2 1-0.4 1.4-24.4 105.8-89.2 196.4-177.4 254.4-1.6 1.4-3.4 2.6-5.4 3.6-64.4 40.8-140.8 64.6-222.6 64.6-31.6 0-62.4-3.6-92-10.2-0.4 0-1-0.2-1.4-0.4-105.8-24.4-196.4-89.2-254.4-177.4-1.4-1.6-2.6-3.4-3.4-5.4-41-64.4-64.8-140.8-64.8-222.6 0-31.6 3.6-62.4 10.2-92 0-0.4 0.2-0.8 0.2-1.4 42.6-184.6 208.4-322.6 405.6-322.6 31.6 0 62.4 3.6 92 10.2 0.4 0 1 0.2 1.4 0.2 105.8 24.6 196.4 89.4 254.4 177.6zM608 109.2l-98.8 98.8h260c-43.2-46.2-98.6-81-161.2-98.8zM160 448c0 64 17.2 124.2 47.2 176h147.4l-73.4-73.4c0 0 0 0 0 0l-120.8-120.8c-0.2 6-0.4 12-0.4 18.2zM336 514.8l109.2 109.2h130.8c0.8 0 1.8 0 2.6 0.2l109.4-109.4v-133.4l-109.2-109.4h-133.4l-109.4 109.2v133.6zM864 448c0-64-17.2-124.2-47.2-176h-147.4l73.4 73.4c0 0 0 0 0 0l120.8 120.8c0.2-6 0.4-12 0.4-18.2zM850.8 544l-98.8-98.8v82.8c0 0 0 0 0 0v177.2c46.2-43.2 81-98.6 98.8-161.2zM688 752.8v-147.4l-194.2 194.2c6 0.4 12.2 0.4 18.2 0.4 64 0 124.2-17.2 176-47.2zM416 786.8l98.8-98.8h-260c43.2 46.2 98.6 81 161.2 98.8zM173.2 352l98.8 98.8v-260c-46.2 43.2-81 98.6-98.8 161.2zM336 143.2v147.4l73.4-73.4c0 0 0 0 0 0l120.8-120.8c-6-0.4-12.2-0.4-18.2-0.4-64 0-124.2 17.2-176 47.2z" />
<glyph unicode="&#xe910;" glyph-name="apps" data-tags="apps" d="M320 752c0-61.8-50.2-112-112-112s-112 50.2-112 112c0 61.8 50.2 112 112 112s112-50.2 112-112zM512 864c-61.8 0-112-50.2-112-112s50.2-112 112-112c61.8 0 112 50.2 112 112s-50.2 112-112 112zM816 640c61.8 0 112 50.2 112 112s-50.2 112-112 112c-61.8 0-112-50.2-112-112s50.2-112 112-112zM208 560c-61.8 0-112-50.2-112-112s50.2-112 112-112c61.8 0 112 50.2 112 112s-50.2 112-112 112zM512 560c-61.8 0-112-50.2-112-112s50.2-112 112-112c61.8 0 112 50.2 112 112s-50.2 112-112 112zM816 560c-61.8 0-112-50.2-112-112s50.2-112 112-112c61.8 0 112 50.2 112 112s-50.2 112-112 112zM208 256c-61.8 0-112-50.2-112-112s50.2-112 112-112c61.8 0 112 50.2 112 112s-50.2 112-112 112zM512 256c-61.8 0-112-50.2-112-112s50.2-112 112-112c61.8 0 112 50.2 112 112s-50.2 112-112 112zM816 256c-61.8 0-112-50.2-112-112s50.2-112 112-112c61.8 0 112 50.2 112 112s-50.2 112-112 112z" />
<glyph unicode="&#xe911;" glyph-name="apps-outline" data-tags="apps-outline" d="M208 864c-61.8 0-112-50.2-112-112s50.2-112 112-112 112 50.2 112 112-50.2 112-112 112zM208 704c-26.4 0-48 21.6-48 48s21.6 48 48 48 48-21.6 48-48-21.6-48-48-48zM512 864c-61.8 0-112-50.2-112-112s50.2-112 112-112c61.8 0 112 50.2 112 112s-50.2 112-112 112zM512 704c-26.4 0-48 21.6-48 48s21.6 48 48 48c26.4 0 48-21.6 48-48s-21.6-48-48-48zM816 640c61.8 0 112 50.2 112 112s-50.2 112-112 112-112-50.2-112-112 50.2-112 112-112zM816 800c26.4 0 48-21.6 48-48s-21.6-48-48-48-48 21.6-48 48 21.6 48 48 48zM208 560c-61.8 0-112-50.2-112-112s50.2-112 112-112 112 50.2 112 112c0 61.8-50.2 112-112 112zM208 400c-26.4 0-48 21.6-48 48s21.6 48 48 48 48-21.6 48-48c0-26.4-21.6-48-48-48zM512 560c-61.8 0-112-50.2-112-112s50.2-112 112-112c61.8 0 112 50.2 112 112s-50.2 112-112 112zM512 400c-26.4 0-48 21.6-48 48s21.6 48 48 48c26.4 0 48-21.6 48-48s-21.6-48-48-48zM816 560c-61.8 0-112-50.2-112-112s50.2-112 112-112 112 50.2 112 112c0 61.8-50.2 112-112 112zM816 400c-26.4 0-48 21.6-48 48s21.6 48 48 48 48-21.6 48-48c0-26.4-21.6-48-48-48zM208 256c-61.8 0-112-50.2-112-112s50.2-112 112-112 112 50.2 112 112-50.2 112-112 112zM208 96c-26.4 0-48 21.6-48 48s21.6 48 48 48 48-21.6 48-48-21.6-48-48-48zM512 256c-61.8 0-112-50.2-112-112s50.2-112 112-112c61.8 0 112 50.2 112 112s-50.2 112-112 112zM512 96c-26.4 0-48 21.6-48 48s21.6 48 48 48c26.4 0 48-21.6 48-48s-21.6-48-48-48zM816 256c-61.8 0-112-50.2-112-112s50.2-112 112-112 112 50.2 112 112-50.2 112-112 112zM816 96c-26.4 0-48 21.6-48 48s21.6 48 48 48 48-21.6 48-48-21.6-48-48-48z" />
<glyph unicode="&#xe912;" glyph-name="archive" data-tags="archive" d="M888 640h-752c-4.4 0-8-3.6-8-8v-488c0-61.8 50.2-112 112-112h544c61.8 0 112 50.2 112 112v488c0 4.4-3.6 8-8 8zM662 328.8l-127.4-127.4c-12.4-12.4-32.8-12.4-45.2 0l-127.4 127.4c-12.2 12.2-13.2 32-1.6 44.8 11.8 13 32.2 14 45.2 2.2 0.4-0.4 0.8-0.8 1.2-1l73.4-73.4v209.6c0 17.2 13.2 32 30.4 32.8 17.6 0.8 32.6-12.8 33.6-30.4 0-0.6 0-1 0-1.6v-210.8l73.4 73.4c12.4 12.4 32.8 12.4 45.2 0 0.4-0.4 0.8-0.8 1-1.2 11.6-12.4 10.4-32.2-1.8-44.4zM960 800v-32c0-35.4-28.6-64-64-64h-768c-35.4 0-64 28.6-64 64v32c0 35.4 28.6 64 64 64h768c35.4 0 64-28.6 64-64z" />
<glyph unicode="&#xe913;" glyph-name="archive-outline" data-tags="archive-outline" d="M872 864h-720c-48.6 0-88-39.4-88-88v-48c0-40.2 27.2-74.2 64-84.6v-499.4c0.2-61.6 50.4-111.8 112-112h544c61.6 0.2 111.8 50.4 112 112v499.4c36.8 10.4 64 44.4 64 84.6v48c0 48.6-39.4 88-88 88zM784 96h-544c-26.4 0-48 21.6-48 48v496h640v-496c0-26.4-21.6-48-48-48zM896 728c0-13.2-10.8-24-24-24h-720c-13.2 0-24 10.8-24 24v48c0 13.2 10.8 24 24 24h720c13.2 0 24-10.8 24-24v-48zM662.6 374.6c12.4-12.4 12.4-32.8 0-45.2l-128-128c-6.2-6.2-14.4-9.4-22.6-9.4s-16.4 3.2-22.6 9.4l-128 128c-12.4 12.4-12.4 32.8 0 45.2s32.8 12.4 45.2 0l73.4-73.4v210.8c0 17.6 14.4 32 32 32s32-14.4 32-32v-210.8l73.4 73.4c12.4 12.6 32.8 12.6 45.2 0z" />
<glyph unicode="&#xe914;" glyph-name="arrow-back" data-tags="arrow-back" d="M872 448c0-26.6-21.4-48-48-48h-508.2l206-206c18.8-18.8 18.8-49.2 0-67.8-9.4-9.4-21.6-14-34-14s-24.6 4.6-34 14l-287.8 287.8c-18.8 18.8-18.8 49.2 0 67.8l288 288.2c18.8 18.8 49.2 18.8 67.8 0 18.8-18.8 18.8-49.2 0-67.8l-206-206h508.2c26.6-0.2 48-21.6 48-48.2z" />
<glyph unicode="&#xe915;" glyph-name="arrow-back-circle" data-tags="arrow-back-circle" d="M96 448c0-229.8 186.2-416 416-416s416 186.2 416 416-186.2 416-416 416-416-186.2-416-416zM521.2 630.8c12.6-12.4 12.6-32.8 0.2-45.2 0 0 0 0 0 0l-104.6-105.6h267.2c17.6 0 32-14.4 32-32s-14.4-32-32-32h-267.2l104.6-105.4c12.4-12.6 12.4-32.8-0.2-45.2s-32.8-12.4-45.2 0.2l-158.8 160c-12.4 12.4-12.4 32.6 0 45l158.8 160c12.4 12.4 32.6 12.6 45.2 0.2 0 0 0 0 0 0z" />
<glyph unicode="&#xe916;" glyph-name="arrow-back-circle-outline" data-tags="arrow-back-circle-outline" d="M716 448c0-17.6-14.4-32-32-32h-267.2l104.6-105.4c12.4-12.6 12.4-32.8-0.2-45.2-6.2-6.2-14.4-9.2-22.6-9.2s-16.4 3.2-22.8 9.4l-158.8 160c-12.4 12.4-12.4 32.6 0 45l158.8 160c12.4 12.6 32.8 12.6 45.2 0.2 12.6-12.4 12.6-32.8 0.2-45.2l-104.4-105.6h267.2c17.6 0 32-14.4 32-32zM928 448c0 229.4-186.6 416-416 416s-416-186.6-416-416 186.6-416 416-416 416 186.6 416 416zM864 448c0-194-158-352-352-352s-352 158-352 352 158 352 352 352 352-158 352-352z" />
<glyph unicode="&#xe917;" glyph-name="arrow-down" data-tags="arrow-down" d="M834 458c-18.8 18.8-49.2 18.8-67.8 0l-206-206v508c0 26.6-21.4 48-48 48s-48-21.4-48-48v-508.2l-206.2 206.2c-18.8 18.8-49.2 18.8-67.8 0-18.8-18.8-18.8-49.2 0-67.8l288-288c9.4-9.4 21.6-14 34-14 12.2 0 24.6 4.6 34 14l288 288c18.4 18.6 18.4 49-0.2 67.8z" />
<glyph unicode="&#xe918;" glyph-name="arrow-down-circle" data-tags="arrow-down-circle" d="M512 32c229.8 0 416 186.2 416 416s-186.2 416-416 416-416-186.2-416-416 186.2-416 416-416zM329.2 457.2c12.4 12.6 32.8 12.6 45.2 0.2 0 0 0 0 0 0l105.4-104.6v267.2c0 17.6 14.4 32 32 32s32-14.4 32-32v-267.2l105.4 104.6c12.6 12.4 32.8 12.4 45.2-0.2s12.4-32.8-0.2-45.2v0l-160-158.8c-12.4-12.4-32.6-12.4-45 0l-160 158.8c-12.2 12.4-12.4 32.6 0 45.2 0 0 0 0 0 0z" />
<glyph unicode="&#xe919;" glyph-name="arrow-down-circle-outline" data-tags="arrow-down-circle-outline" d="M694.6 412l-160-158.8c-6.2-6.2-14.4-9.2-22.6-9.2s-16.4 3-22.6 9.2l-160 158.8c-12.6 12.4-12.6 32.8-0.2 45.2 12.4 12.6 32.8 12.6 45.2 0.2l105.4-104.6v267.2c0 17.6 14.4 32 32 32s32-14.4 32-32v-267.2l105.4 104.6c12.6 12.4 32.8 12.4 45.2-0.2 12.8-12.4 12.6-32.8 0.2-45.2zM928 448c0 229.4-186.6 416-416 416s-416-186.6-416-416 186.6-416 416-416 416 186.6 416 416zM864 448c0-194-158-352-352-352s-352 158-352 352 158 352 352 352 352-158 352-352z" />
<glyph unicode="&#xe91a;" glyph-name="arrow-forward" data-tags="arrow-forward" d="M858 414l-288-288c-9.4-9.4-21.6-14-34-14s-24.6 4.6-34 14c-18.8 18.8-18.8 49.2 0 67.8l206 206h-508c-26.6 0-48 21.4-48 48s21.4 48 48 48h508.2l-206.2 206.2c-18.8 18.8-18.8 49.2 0 67.8 18.8 18.8 49.2 18.8 67.8 0l288-288c18.8-18.6 18.8-49 0.2-67.8z" />
<glyph unicode="&#xe91b;" glyph-name="arrow-forward-circle" data-tags="arrow-forward-circle" d="M928 448c0 229.8-186.2 416-416 416s-416-186.2-416-416 186.2-416 416-416 416 186.2 416 416zM502.8 265.2c-12.6 12.4-12.6 32.8-0.2 45.2 0 0 0 0 0 0l104.6 105.4h-267.2c-17.6 0-32 14.4-32 32s14.4 32 32 32h267.2l-104.6 105.4c-12.4 12.6-12.4 32.8 0.2 45.2s32.8 12.4 45.2-0.2l158.8-160c12.4-12.4 12.4-32.6 0-45l-158.8-160c-12.4-12.2-32.6-12.4-45.2 0 0 0 0 0 0 0z" />
<glyph unicode="&#xe91c;" glyph-name="arrow-forward-circle-outline" data-tags="arrow-forward-circle-outline" d="M706.8 425.4l-158.8-160c-6.2-6.4-14.4-9.4-22.8-9.4-8.2 0-16.2 3-22.6 9.2-12.6 12.4-12.6 32.8-0.2 45.2l104.6 105.4h-267c-17.6 0-32 14.4-32 32s14.4 32 32 32h267.2l-104.6 105.4c-12.4 12.6-12.4 32.8 0.2 45.2s32.8 12.4 45.2-0.2l158.8-160c12.2-12.2 12.2-32.2 0-44.8zM928 448c0 229.4-186.6 416-416 416s-416-186.6-416-416 186.6-416 416-416 416 186.6 416 416zM864 448c0-194-158-352-352-352s-352 158-352 352 158 352 352 352 352-158 352-352z" />
<glyph unicode="&#xe91d;" glyph-name="arrow-redo" data-tags="arrow-redo" d="M117.6 81.8c-13 4.4-21.6 16.6-21.6 30.2 0 146.2 29.4 263.2 87.4 347.6 70 102 180.4 157 328.8 163.8v160.6c0 17.6 14.4 32 32 32 8.2 0 16.2-3.2 22-8.8l352-336c12.8-12.2 13.2-32.4 1-45.2-0.4-0.4-0.6-0.6-1-1l-352-336c-12.8-12.2-33-11.8-45.2 1-5.6 6-8.8 13.8-8.8 22v159.6c-90-2.8-158-17.2-212.2-45.2-58.6-30.2-101-75.4-146.6-134-8.6-11-23-15.2-35.8-10.6v0z" />
<glyph unicode="&#xe91e;" glyph-name="arrow-redo-circle" data-tags="arrow-redo-circle" d="M96 448c0-229.8 186.2-416 416-416s416 186.2 416 416-186.2 416-416 416-416-186.2-416-416zM288 314.6c10.8 123 68.2 234.2 245.8 234.2v74.6c0 9.2 7.6 16.6 16.8 16.4 4.2 0 8.2-1.6 11.2-4.4l169.2-159.4c6.6-6.2 7-16.6 0.6-23.2-0.2-0.2-0.4-0.4-0.6-0.6l-169-159.6c-6.8-6.2-17.2-6-23.6 0.8-2.8 3-4.4 7-4.4 11.2v74.6c-114.2 0-169-27-217.2-77.4-11-11.4-30-2.6-28.8 12.8v0z" />
<glyph unicode="&#xe91f;" glyph-name="arrow-redo-circle-outline" data-tags="arrow-redo-circle-outline" d="M533.8 304.6v74.6c-114.2 0-169-27-217.2-77.4-10.8-11.2-30-2.6-28.6 12.8 10.8 123 68.2 234.2 245.8 234.2v74.6c0 9.2 7.6 16.6 16.8 16.4 4.2 0 8.2-1.6 11.2-4.4l169-159.4c6.6-6.2 7-16.6 0.6-23.2-0.2-0.2-0.4-0.4-0.6-0.6l-168.8-159.6c-6.6-6.4-17.2-6.2-23.6 0.4-3 3.2-4.6 7.2-4.6 11.6zM512 32c-229.4 0-416 186.6-416 416s186.6 416 416 416 416-186.6 416-416-186.6-416-416-416zM512 800c-194 0-352-158-352-352s158-352 352-352 352 158 352 352-158 352-352 352z" />
<glyph unicode="&#xe920;" glyph-name="arrow-redo-outline" data-tags="arrow-redo-outline" d="M128 80c-3.4 0-7 0.6-10.4 1.8-13 4.4-21.6 16.6-21.6 30.2 0 146.2 29.4 263.2 87.2 347.6 70 102 180.4 157 328.8 163.8v160.6c0 12.8 7.6 24.4 19.4 29.4s25.4 2.6 34.6-6.2l352-336c6.4-6 10-14.4 10-23.2s-3.6-17.2-10-23.2l-352-336c-9.2-8.8-23-11.4-34.6-6.2-11.8 5-19.4 16.6-19.4 29.4v159.6c-190.6-5.4-266.8-61.4-358.8-179.2-6.2-8-15.6-12.4-25.2-12.4zM544 336c17.6 0 32-14.4 32-32v-117.2l273.6 261.2-273.6 261.2v-117.2c0-17.6-14.4-32-32-32-142 0-245.6-46-308-136.6-38.4-55.8-62.2-129.6-71.6-220 30 30.4 64.4 58.4 106 79.8 69.8 36 156.8 52.8 273.6 52.8z" />
<glyph unicode="&#xe921;" glyph-name="arrow-undo" data-tags="arrow-undo" d="M896 80c-9.8 0-19.2 4.6-25.2 12.2-45.8 58.6-88.2 103.8-146.6 134-54.2 28-122.2 42.6-212.2 45.2v-159.4c0-17.6-14.4-32-32-32-8.2 0-16 3.2-22 8.8l-352 336c-12.8 12.2-13.2 32.4-1 45.2 0.4 0.4 0.6 0.6 1 1l352 336c12.8 12.2 33 11.6 45.2-1.2 5.6-6 8.8-13.8 8.8-22v-160.8c148.2-6.8 258.8-61.8 328.8-163.8 58-84.4 87.2-201.4 87.2-347.6 0-17.2-14.4-31.6-32-31.6z" />
<glyph unicode="&#xe922;" glyph-name="arrow-undo-circle" data-tags="arrow-undo-circle" d="M512 864c-229.8 0-416-186.2-416-416s186.2-416 416-416 416 186.2 416 416-186.2 416-416 416zM707.4 301.8c-48.2 50.4-103 77.4-217.2 77.4v-74.6c0-9.2-7.6-16.6-16.8-16.6-4.2 0-8.4 1.6-11.4 4.6l-168.8 159.4c-6.6 6.2-7 16.6-0.6 23.2 0.2 0.2 0.4 0.4 0.6 0.6l168.8 159.6c6.6 6.4 17.2 6 23.6-0.6 3-3 4.6-7.2 4.6-11.4v-74.6c177.4 0 234.8-111.2 245.8-234.2 1.2-15.4-17.8-24.2-28.6-12.8v0z" />
<glyph unicode="&#xe923;" glyph-name="arrow-undo-circle-outline" data-tags="arrow-undo-circle-outline" d="M490.2 304.6v74.6c114.2 0 169-27 217.2-77.4 10.8-11.2 30-2.6 28.6 12.8-11 123-68.2 234.2-245.8 234.2v74.6c0 9.2-7.6 16.6-16.8 16.6-4.2 0-8.4-1.6-11.4-4.6l-168.8-159.4c-6.6-6.2-7-16.6-0.6-23.2 0.2-0.2 0.4-0.4 0.6-0.6l168.8-159.6c6.6-6.4 17.2-6.2 23.6 0.4 3 3.2 4.6 7.2 4.6 11.6zM512 32c-229.4 0-416 186.6-416 416s186.6 416 416 416 416-186.6 416-416-186.6-416-416-416zM512 800c-194 0-352-158-352-352s158-352 352-352 352 158 352 352-158 352-352 352z" />
<glyph unicode="&#xe924;" glyph-name="arrow-undo-outline" data-tags="arrow-undo-outline" d="M896 80c-9.6 0-19 4.4-25.2 12.4-92 117.8-168.2 173.8-358.8 179.2v-159.6c0-12.8-7.6-24.4-19.4-29.4s-25.4-2.6-34.6 6.2l-352 336c-6.4 6-10 14.4-10 23.2s3.6 17.2 10 23.2l352 336c9.2 8.8 23 11.4 34.6 6.2 11.8-5 19.4-16.6 19.4-29.4v-160.8c148.2-6.8 258.8-61.8 328.8-163.8 58-84.4 87.2-201.4 87.2-347.6 0-13.6-8.6-25.8-21.6-30.2-3.4-1-7-1.6-10.4-1.6zM174.4 448l273.6-261.2v117.2c0 17.6 14.4 32 32 32 116.8 0 203.8-16.8 273.6-52.8 41.6-21.4 76-49.4 106-79.8-9.4 90.4-33.4 164.2-71.6 220-62.4 90.6-166 136.6-308 136.6-17.6 0-32 14.4-32 32v117.2l-273.6-261.2z" />
<glyph unicode="&#xe925;" glyph-name="arrow-up" data-tags="arrow-up" d="M834 438c-9.4-9.4-21.6-14-34-14s-24.6 4.6-34 14l-206 206v-508c0-26.6-21.4-48-48-48s-48 21.4-48 48v508.2l-206-206.2c-18.8-18.8-49.2-18.8-67.8 0-18.8 18.8-18.8 49.2 0 67.8l287.8 288.2c18.8 18.8 49.2 18.8 67.8 0l288-288c18.8-18.8 18.8-49.2 0.2-68z" />
<glyph unicode="&#xe926;" glyph-name="arrow-up-circle" data-tags="arrow-up-circle" d="M512 864c-229.8 0-416-186.2-416-416s186.2-416 416-416 416 186.2 416 416-186.2 416-416 416zM694.8 438.8c-12.4-12.6-32.8-12.6-45.2-0.2 0 0 0 0 0 0l-105.6 104.6v-267.2c0-17.6-14.4-32-32-32s-32 14.4-32 32v267.2l-105.4-104.6c-12.6-12.4-32.8-12.4-45.2 0.2s-12.4 32.8 0.2 45.2l160 158.8c12.4 12.4 32.6 12.4 45 0l160-158.8c12.4-12.4 12.6-32.6 0.2-45.2 0 0 0 0 0 0z" />
<glyph unicode="&#xe927;" glyph-name="arrow-up-circle-outline" data-tags="arrow-up-circle-outline" d="M694.8 438.8c-6.2-6.4-14.4-9.4-22.8-9.4-8.2 0-16.2 3-22.6 9.2l-105.4 104.6v-267.2c0-17.6-14.4-32-32-32s-32 14.4-32 32v267.2l-105.4-104.6c-12.6-12.4-32.8-12.4-45.2 0.2s-12.4 32.8 0.2 45.2l160 158.8c12.4 12.4 32.6 12.4 45 0l160-158.8c12.4-12.4 12.6-32.8 0.2-45.2zM928 448c0 229.4-186.6 416-416 416s-416-186.6-416-416 186.6-416 416-416 416 186.6 416 416zM864 448c0-194-158-352-352-352s-352 158-352 352 158 352 352 352 352-158 352-352z" />
<glyph unicode="&#xe928;" glyph-name="at" data-tags="at" d="M817.2 728.4c-64.2 70-159 107-274.2 107-102 0-201.4-39.6-279.6-111.6s-126.2-167.6-135.2-269.6c-9-103.4 23-200.6 90-273.8 66.8-72.8 160-113 262.8-113 65 0 107.2 4.8 171 31.4 16.2 6.8 24 25.6 17.2 41.8s-25.6 24-41.8 17.2c-54.4-22.8-87.6-26.6-146.2-26.6-84.6 0-161.2 32.8-215.6 92.2-54.8 59.8-81 139.8-73.4 225 15.6 178 173.2 322.8 351.2 322.8 96.8 0 175.2-29.8 227-86.2 49.2-53.8 71.2-128 63.6-214.4-6.6-74.8-35.6-111.6-58.6-129.2-22-16.8-44-20.4-56-18.2-35.4 6.2-53.8 41-49.2 92.6l17 192.6c1.6 17.6-11.4 33.2-29 34.6-17.6 1.6-33.2-11.4-34.6-29l-1.6-18.2c-30.4 30.6-70.8 47.4-114.2 47.4-47.6 0-93-20.2-128-56.8-33.6-35-54.4-82.2-58.8-132.4-5-55.8 11.6-108.6 45-145.2 29.2-32 69.6-49.6 113.8-49.6 48.8 0 94.8 18 129.4 50.4 4.8 4.4 9.4 9.2 13.6 14.2 19.8-38.2 53.8-58 85.8-63.8 33.8-6 73.4 5.4 106.2 30.4 33.4 25.6 74.8 76.6 83.4 174.4 8.2 103.8-20.2 197.2-81 263.6zM479 323.4c-26.4 0-49.4 10-66.6 28.8-21.4 23.4-31.8 58.6-28.4 96.4 6.4 73.4 60.6 130.8 123.2 130.8 27.6 0 53-11.2 71.8-31.6 21.8-23.8 32.4-57.8 29.2-93.6v0c-8-90.2-70.8-130.8-129.2-130.8z" />
<glyph unicode="&#xe929;" glyph-name="at-circle" data-tags="at-circle" d="M511 862.6c-229.6 0-416-186.2-416-416s186.2-416 416-416 416 186.2 416 416-186.4 416-416 416zM760.6 456c-5.8-65.2-33.6-99.4-56-116.6s-49.4-24.6-72.6-20.4c-21.8 3.8-41 16.2-53.6 34.4-23.6-22.8-55.2-35.6-88-35.2-29.4-0.2-57.4 12-77.2 33.6-22.8 24.8-34 60.8-30.6 98.4 6 70 61.8 114.8 113.8 123 54.4 8.6 104.4-13 125.8-39l7.8-9.4-12.6-100.8c-2.4-28.6 6.6-47 24.6-50.2 4.8-0.8 16.2 0.2 28.8 9.8 13.4 10.2 30.2 32 34.2 77 4.8 53-8.8 98.4-38.6 131-31 33.8-78.2 51.6-136.4 51.6-108 0-203.6-88.8-213.2-198-4.6-52.4 11.4-101.4 44.8-137.8 32.8-35.8 78.6-55.4 129.4-55.4 38 0 61.2 4 99 17.6 14.6 5.2 30.6-2.4 35.8-17s-2.4-30.6-17-35.8c-43.6-15.6-73.4-20.8-117.8-20.8-66.6 0-127.2 26.2-170.6 73.6-44.2 48.2-65.2 112.4-59.4 180.6 5.8 66.6 36.8 129.2 87.6 176.2s115.2 73 181.4 73c74.4 0 135.8-24.2 177.8-69.8 39.8-43.8 58.8-105.4 52.8-173.6zM505.2 518c-29.6-4.6-63.2-31.6-66.6-72.6-2-22.2 4-42.4 16.2-55.8 9.2-10 22.2-15.8 35.8-15.6 40.6 0 69.4 29.8 73.6 76.2 0.2 1.4 0.4 2.8 0.6 4.2l6.4 50.8c-20 12-43.4 16.4-66 12.8v0z" />
<glyph unicode="&#xe92a;" glyph-name="at-circle-outline" data-tags="at-circle-outline" d="M512.2 31.8c-229.4 0-416 186.6-416 416s186.6 416 416 416 416-186.6 416-416-186.6-416-416-416zM512.2 799.8c-194 0-352-158-352-352s158-352 352-352 352 158 352 352-158 352-352 352zM493.2 196.2c-66.6 0-127.2 26.2-170.6 73.6-44.2 48.2-65.2 112.4-59.4 180.6 5.8 66.6 37 129.2 87.6 176.2 50.8 47 115.2 73 181.4 73 74.4 0 135.8-24.2 177.8-69.8 40.2-43.8 59-105.6 53-173.6-5.8-65.2-33.6-99.4-56-116.6-22.2-17-49.4-24.8-72.6-20.6-19.4 3.4-39.8 14.4-53.8 34.4-22.8-22.2-53.2-35-87.8-35-29.8 0-57.2 12-77 33.6-22.8 24.8-34 60.8-30.8 98.4 6 70 61.8 114.8 113.8 122.8 54.2 8.6 104.4-13 125.8-39l7.8-9.4-12.6-100.8c-2.4-28.6 6.6-47 24.6-50.2 4.8-0.8 16.2 0.4 28.8 10 13.4 10.4 30.2 32 34.2 77 4.6 53-8.8 98.4-38.6 131-31 33.8-78.2 51.6-136.4 51.6-108 0-203.6-88.8-213.2-198-4.6-52.4 11.4-101.4 44.8-137.8 32.8-35.6 78.6-55.4 129.4-55.4 38 0 61.2 4.2 99 17.6 14.6 5.2 30.6-2.4 35.8-17s-2.4-30.6-17-35.8c-43.8-15.6-73.6-20.8-118-20.8zM523 519.2c-5 0-10.2-0.4-15.4-1.2-29.8-4.6-63.2-31.6-66.6-72.4-2-22.2 4-42.4 16.2-55.8 9.2-10.2 21.6-15.4 35.8-15.4 40.6 0 69.4 29.8 73.4 76.2 0.2 1.4 0.4 3 0.8 4.4l6.4 50.6c-10.6 6.6-29 13.6-50.6 13.6z" />
<glyph unicode="&#xe92b;" glyph-name="attach" data-tags="attach" d="M512 60c-1 0-2.2 0-3.2 0-59.6 0.8-115.2 24.8-156.8 67.6-41.4 42.6-63.8 99-63 158.4v379.2c0 1.2 0 2.6 0 3.8 0.6 44.8 18.6 86.8 50.6 118s74.4 48.2 119.2 47.8c92.4-1.2 166.8-77.2 165.8-169.8l-0.2-377.4c-1-61-49.4-109.4-110.4-110.4-30-0.4-58.4 10.8-79.8 31.6-21.6 20.8-33.6 48.8-34 78.8v288.4c0 17.6 14.4 32 32 32s32-14.4 32-32v-287.4c0.2-12.8 5.4-24.8 14.6-33.6 9.2-9 21.4-13.8 34.2-13.6 26 0.4 46.8 21.2 47.4 47.2l0.2 377.2c0.6 57.2-45.4 104.4-102.6 105.2-27.8 0.4-54-10.2-73.8-29.6s-31-45.4-31.4-73c0-0.8 0-1.6 0-2.6v-380.6c-0.6-42.4 15.4-82.6 45-113.2 29.6-30.4 69.2-47.6 111.8-48.2 0.8 0 1.6 0 2.4 0 86.6 0 157.8 69.8 159 156.8 0 1.6 0 3 0 4.6v355.4c0 17.6 14.4 32 32 32s32-14.4 32-32v-354.6c0-2 0-4.2 0-6.2-1.8-121.8-101.4-219.8-223-219.8z" />
<glyph unicode="&#xe92c;" glyph-name="attach-outline" data-tags="attach-outline" d="M512 60c-1 0-2.2 0-3.2 0-59.6 0.8-115.2 24.8-156.8 67.6-41.4 42.6-63.8 99-63 158.4v379.2c0 1.2 0 2.6 0 3.8 0.6 44.8 18.6 86.8 50.6 118s74.4 48.2 119.2 47.8c92.4-1.2 166.8-77.2 165.8-169.8l-0.2-377.4c-1-61-49.4-109.4-110.4-110.4-30-0.4-58.4 10.8-79.8 31.6-21.6 20.8-33.6 48.8-34 78.8v288.4c0 17.6 14.4 32 32 32s32-14.4 32-32v-287.4c0.2-12.8 5.4-24.8 14.6-33.6 9.2-9 21.4-13.8 34.2-13.6 26 0.4 46.8 21.2 47.4 47.2l0.2 377.2c0.6 57.2-45.4 104.4-102.6 105.2-27.8 0.4-54-10.2-73.8-29.6s-31-45.4-31.4-73c0-0.8 0-1.6 0-2.6v-380.6c-0.6-42.4 15.4-82.6 45-113.2 29.6-30.4 69.2-47.6 111.8-48.2 0.8 0 1.6 0 2.4 0 86.6 0 157.8 69.8 159 156.8 0 1.6 0 3 0 4.6v355.4c0 17.6 14.4 32 32 32s32-14.4 32-32v-354.6c0-2 0-4.2 0-6.2-1.8-121.8-101.4-219.8-223-219.8z" />
<glyph unicode="&#xe92d;" glyph-name="backspace" data-tags="backspace" d="M806.2 768h-492.4c-25.8 0-50.4-11.2-67.4-30.6-1.4-1.6-2.8-3.4-3.8-5.4l-178.6-267.6c-6.2-10.2-6.2-22.8 0-33l178.4-267.2c1.2-2 2.4-4 4-5.8 17-19.4 41.6-30.6 67.4-30.6h492.6c49.6 0 89.6 40.2 89.8 89.8v460.6c-0.2 49.6-40.4 89.8-90 89.8zM696 338c12.6-12.4 13-32.6 0.6-45.2s-32.6-13-45.2-0.6c-0.2 0.2-0.4 0.4-0.6 0.6l-107.4 107.2-107.4-107.2c-12.6-12.6-32.8-12.6-45.2 0s-12.6 32.8 0 45.2l107.2 107.4-107.4 107.4c-12.6 12.6-12.4 32.8 0 45.4s32.8 12.4 45.4 0l107.4-107.4 107.4 107.4c12.6 12.6 32.8 12.6 45.2 0 12.6-12.6 12.6-32.8 0-45.2l-107.4-107.4 107.4-107.6z" />
<glyph unicode="&#xe92e;" glyph-name="backspace-outline" data-tags="backspace-outline" d="M313.8 128c-25.8 0-50.4 11.2-67.4 30.6-1.2 1.4-2.4 3-3.4 4.6l-177 267.2c-7 10.8-7 24.6 0 35.4l177.8 268.2c0.8 1.2 1.6 2.4 2.6 3.4 17 19.4 41.6 30.6 67.4 30.6h492.6c49.4-0.2 89.6-40.4 89.8-89.6v-460.6c-0.2-49.4-40.4-89.6-89.6-89.8h-492.8zM295.8 199.4c4.8-4.8 11.2-7.4 18-7.4h492.6c14 0 25.6 11.6 25.8 25.8v460.4c0 14-11.6 25.6-25.8 25.8h-492.6c-6.8 0-13.2-2.8-18-7.6l-164.8-248.4 164.8-248.6zM588.6 445.4l107.4 107.4c12.4 12.4 12.4 32.8 0 45.2s-32.8 12.4-45.2 0l-107.4-107.4-107.4 107.4c-12.4 12.4-32.8 12.4-45.2 0s-12.4-32.8 0-45.2l107.4-107.4-107.6-107.4c-12.4-12.4-12.4-32.8 0-45.2 6.2-6.2 14.4-9.4 22.6-9.4s16.4 3.2 22.6 9.4l107.4 107.4 107.4-107.4c6.2-6.2 14.4-9.4 22.6-9.4s16.4 3.2 22.6 9.4c12.4 12.4 12.4 32.8 0 45.2l-107.2 107.4z" />
<glyph unicode="&#xe92f;" glyph-name="bandage" data-tags="bandage" d="M551.6 646c-12.4 12.4-32.8 12.6-45.2 0 0 0 0 0 0 0l-186.6-186.6c-12.4-12.4-12.6-32.8 0-45.2 0 0 0 0 0 0l158.4-158.4c12.4-12.4 32.8-12.6 45.2 0 0 0 0 0 0 0l186.6 186.6c12.4 12.4 12.6 32.8 0 45.2 0 0 0 0 0 0l-158.4 158.4zM438.6 425.4c-12.4-12.6-32.8-12.6-45.2 0-12.6 12.4-12.6 32.8 0 45.2s32.8 12.6 45.2 0c0 0 0 0 0 0 12.6-12.4 12.6-32.8 0-45.2zM534.6 329.4c-12.4-12.6-32.8-12.6-45.2 0-12.6 12.4-12.6 32.8 0 45.2s32.8 12.6 45.2 0c0 0 0 0 0 0 12.6-12.4 12.6-32.8 0-45.2zM534.6 521.4c-12.4-12.6-32.8-12.6-45.2 0-12.6 12.4-12.6 32.8 0 45.2s32.8 12.6 45.2 0c0 0 0 0 0 0 12.6-12.4 12.6-32.8 0-45.2zM630.6 425.4c-12.4-12.6-32.8-12.6-45.2 0s-12.6 32.8 0 45.2 32.8 12.6 45.2 0c0 0 0 0 0 0 12.6-12.4 12.6-32.8 0-45.2zM931.2 867.2c-81.4 81-213 81-294.6 0l-139.6-139.8c-3.2-3.2-3-8.2 0-11.4 2.2-2.2 5.4-3 8.4-1.8 7.4 3 15.4 4.8 23.4 5 25.4 0 50-10 67.8-28.2l158.4-158.4c18-18 28.2-42.4 28.2-67.8-0.4-8-2-16-5-23.4-1.6-4.2 0.6-8.8 4.8-10.2 3-1 6.2-0.4 8.4 1.8l139.8 139.6c81 81.6 81 213.2 0 294.6v0zM508.6 186.4c-25.4 0-49.8 10-67.8 28l-158.4 158.4c-7.8 7.8-14.2 16.8-18.8 26.8-9.2 19.4-2.8 50 5 73.8 1.2 4.2-1.2 8.6-5.4 10-2.8 0.8-5.8 0-8-2l-154.4-154c-81.4-81.4-81.4-213.2 0-294.6s213.2-81.4 294.6 0v0l145.6 145.8c3.2 3.2 3.2 8.2 0 11.4-2.2 2.2-5.4 3-8.4 1.8-8.6-3.2-17-5.4-24-5.4z" />
<glyph unicode="&#xe930;" glyph-name="bandage-outline" data-tags="bandage-outline" d="M931.2 867.2c-81.2 81.2-213.2 81.2-294.4 0l-544-544c-81.2-81.2-81.2-213.2 0-294.4 0 0 0.2-0.2 0.2-0.2 40.6-40.4 93.8-60.8 147-60.8 53.4 0 106.6 20.2 147.2 60.8l544 544c81.2 81.4 81.2 213.4 0 294.6zM710 442.4l-186.6-186.6c-12.4-12.4-32.8-12.4-45.2 0l-158.6 158.2c-6 6-9.4 14-9.4 22.6s3.4 16.6 9.4 22.6l186.6 186.6c6 6 14 9.4 22.6 9.4s16.6-3.4 22.6-9.4l158.4-158.4c12.6-12.2 12.6-32.6 0.2-45zM342 74c-56.2-56.2-147.8-56.2-204 0 0 0 0 0-0.2 0.2-56.2 56.2-56 147.6 0.2 203.8l117.4 117.4c4.6-9.8 11-18.8 18.8-26.6l158.4-158.4c8-8 17-14.2 26.8-18.8l-117.4-117.6zM886 618l-112-112c-4.6 9.6-10.8 18.8-18.8 26.8l-158.4 158.4c-7.8 7.8-17 14.2-26.6 18.8l111.8 112c56.2 56.2 147.8 56.2 204 0s56.2-147.8 0-204zM512 576c17.6 0 32-14.4 32-32s-14.4-32-32-32c-17.6 0-32 14.4-32 32s14.4 32 32 32zM608 480c17.6 0 32-14.4 32-32s-14.4-32-32-32-32 14.4-32 32c0 17.6 14.4 32 32 32zM416 480c17.6 0 32-14.4 32-32s-14.4-32-32-32-32 14.4-32 32c0 17.6 14.4 32 32 32zM512 384c17.6 0 32-14.4 32-32s-14.4-32-32-32c-17.6 0-32 14.4-32 32s14.4 32 32 32z" />
<glyph unicode="&#xe931;" glyph-name="barbell" data-tags="barbell" d="M934 608c-20 0.6-39-8.8-50.6-25-1.2-1.8-3.8-2.2-5.6-1-1 0.8-1.8 2-1.8 3.2v73.2c0 41.6-32.6 76.4-74.2 77.4-42 1-76.8-32-77.8-74 0-0.6 0-1.2 0-2v-164c0-2.2-1.8-4-4-4h-416c-2.2 0-4 1.8-4 4v162.6c0 41.6-32.6 76.4-74.2 77.4-42 1-76.8-32.2-77.8-74.2 0-0.6 0-1.2 0-1.8v-74.8c0-2.2-1.8-4-4-4-1.4 0-2.6 0.6-3.2 1.8-11.8 16.4-30.8 25.8-50.8 25.2-32.6-1-58-28.6-58-61.2v-197.4c0-32.6 25.4-60.2 58-61.2 20-0.6 39 8.8 50.6 25 1.2 1.8 3.6 2.4 5.6 1.2 1.2-0.8 1.8-2.2 1.8-3.6v-73.4c0-41.4 32.6-76.4 74.2-77.4 42-1 76.8 32.2 77.8 74.2 0 0.6 0 1.2 0 1.8v164c0 2.2 1.8 4 4 4h416c2.2 0 4-1.8 4-4v-162.6c0-41.6 32.6-76.4 74.2-77.4 42-1 76.8 32.2 77.8 74.2 0 0.6 0 1.2 0 1.8v74.8c0 2.2 1.8 4 4 4 1.4 0 2.6-0.6 3.2-1.8 11.6-16.4 30.6-25.8 50.8-25 32.6 1 58 28.6 58 61.2v197.4c0 32.8-25.4 60.4-58 61.4z" />
<glyph unicode="&#xe932;" glyph-name="bar-chart" data-tags="bar-chart" d="M960-32h-864c-35.4 0-64 28.6-64 64v864c0 17.6 14.4 32 32 32s32-14.4 32-32v-864h864c17.6 0 32-14.4 32-32s-14.4-32-32-32zM312 96h-80c-39.8 0-72 32.2-72 72v304c0 39.8 32.2 72 72 72h80c39.8 0 72-32.2 72-72v-304c0-39.8-32.2-72-72-72zM600 96h-80c-39.8 0-72 32.2-72 72v400c0 39.8 32.2 72 72 72h80c39.8 0 72-32.2 72-72v-400c0-39.8-32.2-72-72-72zM887.2 96h-80c-39.8 0-72 32.2-72 72v528c0 39.8 32.2 72 72 72h80c39.8 0 72-32.2 72-72v-528c0-39.8-32.2-72-72-72z" />
<glyph unicode="&#xe933;" glyph-name="bar-chart-outline" data-tags="bar-chart-outline" d="M960-32h-864c-35.2 0-64 28.8-64 64v864c0 17.6 14.4 32 32 32s32-14.4 32-32v-864h864c17.6 0 32-14.4 32-32s-14.4-32-32-32zM384 168v304c0 39.8-32.2 72-72 72h-80c-39.8 0-72-32.2-72-72v-304c0-39.8 32.2-72 72-72h80c39.8 0 72 32.2 72 72zM312 480c4.4 0 8-3.6 8-8v-304c0-4.4-3.6-8-8-8h-80c-4.4 0-8 3.6-8 8v304c0 4.4 3.6 8 8 8h80zM672 168v400c0 39.8-32.2 72-72 72h-80c-39.8 0-72-32.2-72-72v-400c0-39.8 32.2-72 72-72h80c39.8 0 72 32.2 72 72zM600 576c4.4 0 8-3.6 8-8v-400c0-4.4-3.6-8-8-8h-80c-4.4 0-8 3.6-8 8v400c0 4.4 3.6 8 8 8h80zM959.2 168v528c0 39.8-32.2 72-72 72h-80c-39.8 0-72-32.2-72-72v-528c0-39.8 32.2-72 72-72h80c39.8 0 72 32.2 72 72zM887.2 704c4.4 0 8-3.6 8-8v-528c0-4.4-3.6-8-8-8h-80c-4.4 0-8 3.6-8 8v528c0 4.4 3.6 8 8 8h80z" />
<glyph unicode="&#xe934;" glyph-name="barcode" data-tags="barcode" d="M838.2 768h-0.2l-70-0.6-512.4 0.6-73.4-0.6c-48.4 0-86.2-39.4-86.2-89.8v-460.6c0-50.2 38-89.8 86.4-89.8h0.4l73.4 0.6 512.2-0.6 70.2 0.6c49.4 0.2 89.6 40.2 89.6 89.8v460.6c-0.2 49.6-40.4 89.8-90 89.8zM288 320c0-17.6-14.4-32-32-32s-32 14.4-32 32v256c0 17.6 14.4 32 32 32s32-14.4 32-32v-256zM416 256c0-17.6-14.4-32-32-32s-32 14.4-32 32v384c0 17.6 14.4 32 32 32s32-14.4 32-32v-384zM544 288c0-17.6-14.4-32-32-32s-32 14.4-32 32v320c0 17.6 14.4 32 32 32s32-14.4 32-32v-320zM672 256c0-17.6-14.4-32-32-32s-32 14.4-32 32v384c0 17.6 14.4 32 32 32s32-14.4 32-32v-384zM800 320c0-17.6-14.4-32-32-32s-32 14.4-32 32v256c0 17.6 14.4 32 32 32s32-14.4 32-32v-256z" />
<glyph unicode="&#xe935;" glyph-name="barcode-outline" data-tags="barcode-outline" d="M768 127.4c-17.6 0-31.8 14.2-32 31.6-0.2 17.6 14 32.2 31.6 32.2l70.4 0.8c14.4 0 26 11.6 26 25.8v460.4c0 14-11.6 25.6-25.8 25.8l-70-0.6c-0.2 0-0.2 0-0.4 0-17.6 0-31.8 14.2-32 31.6-0.2 17.6 14 32.2 31.6 32.2l70.6 0.8c0.2 0 0.4 0 0.4 0 49.2-0.2 89.4-40.4 89.6-89.6v-460.6c-0.2-49.4-40.4-89.6-89.6-89.8l-70.2-0.6c0 0-0.2 0-0.2 0zM182.6 127.4l73.6 0.6c17.6 0.2 31.8 14.6 31.8 32.2-0.2 17.6-14.4 31.8-32 31.8 0 0-0.2 0-0.2 0l-73.4-0.6c-14.6 0-22.2 13-22.2 25.8v460.4c0 12.8 7.6 25.8 22.4 25.8 0 0 0.2 0 0.2 0l73.6 0.6c17.6 0.2 31.8 14.6 31.8 32.2-0.2 17.6-14.4 31.8-32 31.8 0 0-0.2 0-0.2 0l-73.4-0.6c-48.4 0-86.2-39.4-86.2-89.8v-460.6c0-50.4 38-89.8 86.4-89.8-0.4 0.2-0.2 0.2-0.2 0.2zM800 320v256c0 17.6-14.4 32-32 32s-32-14.4-32-32v-256c0-17.6 14.4-32 32-32s32 14.4 32 32zM672 256v384c0 17.6-14.4 32-32 32s-32-14.4-32-32v-384c0-17.6 14.4-32 32-32s32 14.4 32 32zM544 288v320c0 17.6-14.4 32-32 32s-32-14.4-32-32v-320c0-17.6 14.4-32 32-32s32 14.4 32 32zM416 256v384c0 17.6-14.4 32-32 32s-32-14.4-32-32v-384c0-17.6 14.4-32 32-32s32 14.4 32 32zM288 320v256c0 17.6-14.4 32-32 32s-32-14.4-32-32v-256c0-17.6 14.4-32 32-32s32 14.4 32 32z" />
<glyph unicode="&#xe936;" glyph-name="baseball" data-tags="baseball" d="M888 368.6l-1 52.2c-26.4 0.6-52.8 3.8-78.6 9.4l-10-34.8c-4-15-19.2-23.8-34.2-20-15 4-23.8 19.2-20 34.2 0.2 0.4 0.2 0.8 0.4 1.4l10 34.8c-25 9.2-49.2 20.8-72 34.8l-20.8-29.6c-9-12.6-26.4-15.6-39-6.8-12.6 9-15.6 26.4-6.8 39l20.8 29.4c-22 17.8-42.2 38-60 60l-29.4-20.6c-12.6-9-30.2-6-39 6.8-9 12.6-6 30.2 6.8 39l29.4 20.8c-14 22.8-25.6 47-34.8 72.2l-34.6-10c-14.8-4.4-30.4 4.2-34.8 19s4.2 30.4 19 34.8l34.6 10c-4.6 21.4-7.6 43.2-8.8 65.2v0c-0.2 4-0.4 8-0.4 12l-36.4 0.6c-15.2 0.2-27.4 12.8-27.4 28-150.4-33.4-270-147-311-295.2 16.6-1 29.6-14.6 30-31.4l0.8-48.8c3.2-0.2 6.4-0.2 9.4-0.4 22-1.2 43.8-4.2 65.2-8.8l10 34.6c4.4 14.8 19.8 23.4 34.8 19 14.8-4.4 23.4-19.8 19-34.8v0l-10-34.6c25-9.2 49.2-20.8 72-34.8l20.6 29.4c9 12.6 26.4 15.6 39 6.8 12.6-9 15.6-26.4 6.8-39l-20.8-29.4c11-9 21.6-18.4 31.6-28.4s19.6-20.6 28.4-31.6l29.4 20.8c12.6 9 30.2 6 39-6.8s6-30.2-6.8-39v0l-29.6-20.8c13.8-22.8 25.6-47 34.8-72l34.8 10c14.8 4.4 30.4-4.2 34.6-19 4.4-14.8-4.2-30.4-19-34.6l-34.8-10c5.6-25.2 8.6-50.8 9.4-76.6l36.6-0.6c17.6-0.4 31.8-14.8 31.4-32.6 0-0.8 0-1.6-0.2-2.4 150.4 35.8 268.6 152.2 306.8 302-13.8 1-25 13-25.2 27.2zM603 847.6c-0.2-15.2-12.6-27.6-28-27.6h-0.6l-33.6 0.6c0-2.6 0.2-5.2 0.4-7.8v0c1-17.6 3.2-35.2 6.8-52.6l32.6 9.4c15.2 3.2 30-6.6 33.2-21.6 2.8-13.4-4.6-27-17.6-32l-32.6-9.4c7.2-19.2 16.2-37.8 26.6-55.4l27.6 19.6c12.6 9 30.2 6 39-6.8 9-12.6 6-30.2-6.8-39v0l-27.8-19.6c7-8.4 14.4-16.6 22.2-24.4s16-15.2 24.4-22.2l19.6 27.6c9 12.6 26.4 15.6 39.2 6.6s15.6-26.4 6.6-39.2v0l-19.6-27.6c17.6-10.4 36.2-19.4 55.4-26.6l9.6 32.6c4.4 14.8 19.8 23.4 34.8 19s23.4-19.8 19-34.8l-9.4-32.6c20.4-4.2 41-6.6 62-7.2l-0.4 18c-0.2 15.4 12 28.2 27.6 28.4h0.6c1.8 0 3.4-0.2 5.2-0.6-31.2 162-155.2 290.4-316 327 0-0.4 0-1 0-1.8zM416.8 45c0.4 17.6 14.8 31.8 32.6 31.4l33.6-0.6c-0.8 20.2-3.2 40.2-7.2 60l-32.6-9.4c-14.8-4.4-30.4 4.2-34.8 19s4.2 30.4 19 34.8l32.4 9.4c-7.2 19.2-16.2 37.8-26.6 55.4l-27.6-19.6c-12.6-9-30.2-6-39 6.8-9 12.6-6 30.2 6.8 39l27.6 19.6c-7 8.4-14.4 16.6-22.2 24.4s-16 15.2-24.4 22.2l-19.6-27.8c-9-12.6-26.4-15.6-39-6.8-12.6 9-15.6 26.4-6.8 39l19.6 27.6c-17.6 10.4-36.2 19.4-55.4 26.6l-9.4-32.6c-4.4-14.8-19.8-23.4-34.8-19-14.8 4.4-23.4 19.8-19 34.8v0l9.4 32.6c-17.4 3.6-35 6-52.6 6.8-1.8 0-3.6 0.2-5.4 0.2l0.4-21.2c0.4-17.6-13.8-32.2-31.4-32.6h-0.4c-2.6 0-5.4 0.4-7.8 1 30.8-162.2 154.6-290.6 315.4-327.8-0.6 2.4-0.8 4.6-0.8 6.8z" />
<glyph unicode="&#xe937;" glyph-name="baseball-outline" data-tags="baseball-outline" d="M512 864c-229.4 0-416-186.6-416-416s186.6-416 416-416 416 186.6 416 416-186.6 416-416 416zM862.4 482.4c-11.2 1-22.2 2.8-33 4.8l8.2 28.4c5 17-4.8 34.8-21.8 39.6-17 5-34.8-4.8-39.6-21.8l-8.2-28.2c-16.2 6.4-31.8 14-46.8 22.8l16.8 23.8c10.2 14.4 6.8 34.4-7.6 44.6s-34.4 6.8-44.6-7.6l-16.8-23.8c-14.4 12.2-27.6 25.6-39.8 40l23.8 16.8c14.4 10.2 17.8 30.2 7.6 44.6s-30.2 17.8-44.6 7.6l-23.8-16.8c-8.6 15-16.2 30.6-22.8 46.8l28.2 8.2c17 5 26.8 22.6 21.8 39.6s-22.6 26.8-39.6 21.8l-28.4-8.2c-2.2 10.8-3.8 21.8-4.8 33 166.4-16.4 299.4-149.4 315.8-316zM161.6 413.6c11.2-1 22-2.8 32.8-4.8l-8.2-28.4c-5-17 4.8-34.8 21.8-39.6 3-0.8 6-1.2 9-1.2 13.8 0 26.6 9 30.8 23l8.2 28.2c16.2-6.4 31.8-14 46.8-22.8l-16.8-24c-10.2-14.4-6.8-34.4 7.6-44.6 5.6-4 12-5.8 18.4-5.8 10 0 20 4.8 26.2 13.6l16.8 23.8c14.4-12.2 27.6-25.6 40-40l-23.8-16.8c-14.4-10.2-17.8-30.2-7.6-44.6 6.2-8.8 16.2-13.6 26.2-13.6 6.4 0 12.8 2 18.4 5.8l23.8 16.8c8.6-15 16.2-30.6 22.8-46.8l-28.2-8.2c-17-5-26.8-22.6-21.8-39.6 4-14 16.8-23 30.8-23 3 0 6 0.4 9 1.2l28.4 8.2c2.2-10.8 3.8-21.8 4.8-32.8-167 16.4-299.8 149.4-316.2 316zM541.8 97.2c-1.4 17.2-4 34.4-7.4 51.2l31.2 9c17 5 26.8 22.6 21.8 39.6s-22.6 26.8-39.6 21.8l-31.2-9c-8.6 23-19.2 45-31.8 66l26.6 18.8c14.4 10.2 17.8 30.2 7.6 44.6s-30.2 17.8-44.6 7.6l-26.4-18.8c-9.2 11.2-19 22-29.6 32.2-8.4 8.2-17 15.8-25.8 23.2l18.6 26.4c10.2 14.4 6.8 34.4-7.6 44.6s-34.4 6.8-44.6-7.6l-18.8-26.4c-21 12.6-43.2 23.2-66 31.8l9 31.2c5 17-4.8 34.8-21.8 39.6-17 5-34.8-4.8-39.6-21.8l-9-31c-16.8 3.6-34 6-51.2 7.4 14 170.6 150.2 306.8 320.4 321.2 1.4-17.4 4-34.4 7.4-51.4l-31-9c-17-5-26.8-22.6-21.8-39.6 4-14 16.8-23 30.8-23 3 0 6 0.4 9 1.2l31.2 9c8.6-23 19.2-45 31.8-66.2l-26.4-18.8c-14.4-10.2-17.8-30.2-7.6-44.6 6.2-8.8 16.2-13.6 26.2-13.6 6.4 0 12.8 2 18.4 5.8l26.4 18.6c7.2-8.8 14.8-17.2 22.8-25.4 10.4-10.6 21.2-20.6 32.6-30l-18.6-26.4c-10.2-14.4-6.8-34.4 7.6-44.6 5.6-4 12-5.8 18.4-5.8 10 0 20 4.8 26.2 13.6l18.8 26.4c21-12.6 43.2-23.2 66.2-31.8l-9-31.2c-5-17 4.8-34.8 21.8-39.6 3-0.8 6-1.2 9-1.2 13.8 0 26.6 9 30.8 23l9 31c16.8-3.6 34-6 51.4-7.4-15.2-170-151.4-306.2-321.6-320.6z" />
<glyph unicode="&#xe938;" glyph-name="basket" data-tags="basket" d="M848.2 576h-128.2l-182.4 243.2c-10.6 14.2-30.6 17-44.8 6.4-2.4-1.8-4.6-4-6.4-6.4l-182.4-243.2h-128.2c-36 0-65-29-65.2-64.8 0-6 0.8-12.2 2.6-18l92.6-326.2c12.4-43.6 52.2-73.8 97.6-73.8h417.2c45.4 0.2 85.2 30.2 98 73.8l92.6 326.8c0.4 1.6 0.8 3.2 1 4.8l1 9.8c0.2 1 0.2 2 0.2 3.2-0.2 35.4-29.2 64.4-65.2 64.4zM512 746.6l128-170.6h-256l128 170.6zM512 256.6c-41.6 0.2-75.2 34.2-75 75.8s34.2 75.2 75.8 75c41.6-0.2 75-33.8 75-75.4-0.2-41.6-34.2-75.2-75.8-75.4v0z" />
<glyph unicode="&#xe939;" glyph-name="basketball" data-tags="basketball" d="M512 493.2l69 68.8c-64.8 75.2-100.4 171.2-100.2 270.6 0 10 0.4 20 1 30-88.6-6.2-173-40.8-240.4-98.6l270.6-270.8zM626.2 607.6l156.4 156.4c-66.4 57-149.2 91.4-236.6 98.4-0.8-9.8-1.2-19.8-1.2-29.8-0.2-82.2 28.8-162 81.4-225zM671.6 562.2c63.2-52.8 142.8-81.6 225.2-81.6 10 0 20 0.4 29.8 1.2-7 87.4-41.4 170.2-98.4 236.8l-156.6-156.4zM352.4 333.8c-63.2 52.8-142.8 81.6-225.2 81.6-10 0-20-0.4-29.8-1.2 7-87.4 41.4-170.2 98.4-236.8l156.6 156.4zM512 402.8l-68.8-69c64.8-75.2 100.4-171.2 100.2-270.6 0-10-0.4-20-1-30 88.6 6.2 173 40.8 240.4 98.6l-270.8 271zM896.6 416.6c-99.2 0-195.2 35.4-270.6 100.2l-68.8-68.8 270.8-270.6c57.8 67.4 92.4 151.8 98.8 240.4-10-0.8-20-1.2-30.2-1.2zM466.8 448l-270.8 270.6c-57.8-67.4-92.6-151.8-98.8-240.4 10 0.8 20 1 30 1 99.2 0 195.2-35.4 270.6-100.2l69 69zM241.4 132c66.4-57 149.4-91.4 236.6-98.4 0.8 9.8 1.2 19.8 1.2 29.8 0 82.2-28.8 162-81.6 225.2l-156.2-156.6z" />
<glyph unicode="&#xe93a;" glyph-name="basketball-outline" data-tags="basketball-outline" d="M808.6 156.6c73.8 75.2 119.4 178 119.4 291.4s-45.6 216.2-119.4 291.4c-0.8 1-1.6 1.8-2.4 2.8-0.8 0.8-1.8 1.6-2.8 2.4-75.2 73.8-178 119.4-291.4 119.4s-216.2-45.6-291.4-119.4c-1-0.8-1.8-1.6-2.8-2.4-0.8-0.8-1.6-1.8-2.4-2.8-73.8-75.2-119.4-178-119.4-291.4s45.6-216.2 119.4-291.4c0.8-1 1.6-1.8 2.4-2.8 0.8-0.8 1.8-1.6 2.8-2.4 75.2-73.8 178-119.4 291.4-119.4s216.2 45.6 291.4 119.4c1 0.8 1.8 1.6 2.8 2.4 0.8 1 1.6 1.8 2.4 2.8zM541.8 97.2c-7.2 87.6-41.8 170.2-98.6 236.6l69 69 225.2-225.2c-54.2-45-121.8-74.2-195.6-80.4zM161.6 413.6c72-7 137.6-36 190.4-80l-110.6-110.6c-43.8 52.6-72.6 118.4-79.8 190.6zM241.6 673.2l225.2-225.2-69-69c-66.4 57-149.2 91.6-236.6 98.8 6.4 74 35.4 141.4 80.4 195.4zM482 798.8c7.2-87.4 41.8-170.2 98.6-236.6l-68.6-69-225.2 225.2c54 45 121.4 74 195.2 80.4zM862.4 482.4c-72 7-137.8 36-190.6 80.2l110.6 110.6c44-52.8 72.8-118.6 80-190.8zM626.4 607.8c-44.2 52.8-73 118.6-80.2 190.6 72.2-7 138-36 190.8-80l-110.6-110.6zM397.4 288.2c44-52.8 73-118.4 80-190.4-72 7-137.8 36-190.6 80l110.6 110.4zM557.2 448l68.8 68.8c66.4-56.8 149-91.6 236.8-98.6-6.2-73.8-35.4-141.4-80.4-195.2l-225.2 225z" />
<glyph unicode="&#xe93b;" glyph-name="basket-outline" data-tags="basket-outline" d="M524.4 456.2c-0.2 0-0.4 0-0.6 0-63.8 0-115.8-51.8-116.2-115.6-0.4-64 51.6-116.4 115.6-116.8 0 0 0.2 0 0.2 0 64 0 116.2 52 116.6 116.2 0 63.8-51.8 115.8-115.6 116.2zM523.6 287.8c-28.8 0.2-52 23.6-51.8 52.4 0.2 28.6 23.6 51.8 52.2 51.8 0 0 0.2 0 0.2 0 28.6-0.2 51.8-23.6 51.8-52-0.2-28.6-23.6-52.2-52.4-52.2zM887.2 608c0 0 0 0 0 0h-167.2l-182.4 243.2c-6 8-15.6 12.8-25.6 12.8s-19.6-4.8-25.6-12.8l-182.4-243.2h-167.2c0 0 0 0 0 0-39.8 0-72.4-32.4-72.8-72 0-7 0.8-13.8 3-20.4l103.2-364.2c13.6-48.6 58.4-82.4 108.6-82.4 0.2 0 0.2 0 0.4 0h465.6c0 0 0 0 0 0 50.4 0 95.2 33.8 109.4 82.2l103.4 364.6c0.4 1.8 0.8 3.4 1 5.2l1.2 11c0.2 1.2 0.2 2.4 0.2 3.8-0.4 39.8-33 72.2-72.8 72.2zM512 778.6l128-170.6h-256l128 170.6zM895.2 530.8l-102.6-361.8c-6.2-21.2-25.8-36-47.8-36 0 0 0 0 0 0h-465.8c0 0-0.2 0-0.2 0-21.8 0-41.2 14.6-47.2 35.8l-103.2 364.6c0 0.2-0.2 0.4-0.2 0.8-0.2 0.4-0.2 0.8-0.2 1.2 0 4.8 4 8.6 8.8 8.6 0 0 0 0 0 0h750.4c0 0 0 0 0 0 4.4 0 8-3.2 8.6-7.4l-0.6-5.8z" />
<glyph unicode="&#xe93c;" glyph-name="battery-charging" data-tags="battery-charging" d="M155.4 256h208l-13-46.4-0.4-1.4-0.2-1.6c-1-4.8-1.2-9.8-0.6-14.6h-193.8c-68.2 0-123.4 55.2-123.4 123.4v265.2c0 68.2 55.2 123.4 123.4 123.4h323.6l-48.8-64h-274.8c-32.8 0-59.4-26.6-59.4-59.4v-265.2c0-32.8 26.6-59.4 59.4-59.4zM772.6 704h-197.2c0.6-4.8 0.4-9.6-0.6-14.4l-0.2-1.4-0.4-1.4-13-46.6h211.6c32.8 0 59.4-26.6 59.4-59.4v-265.2c0-32.8-26.6-59.4-59.4-59.4h-278.8l-48.8-64h327.4c68.2 0 123.4 55.2 123.4 123.4v265c0 68.2-55.2 123.4-123.4 123.4zM325.4 371.6c-18 0-34.6 10-43.2 26-8.8 16.4-7.6 36.4 2.8 51.6l0.6 1 0.6 0.8 109 142.8h-215.8c-22 0-40-18-40-40v-212c0-22 18-40 40-40h196.8l19.6 69.8h-70.4zM552.2 398.2l54.2 71c0.8 1.2 1.2 2.4 1.6 3.8 0 0.4 0.2 0.8 0.2 1.4 0 0.8 0 1.8-0.2 2.6-0.2 1.2-0.6 2.4-1.4 3.6-0.4 0.6-1 1.4-1.6 1.8-0.2 0.2-0.6 0.6-1 0.8-0.6 0.4-1.4 0.8-2.2 1.2-0.8 0.2-1.8 0.4-2.6 0.4h-123.2l24.2 86.4 6.4 23 12.4 44.4 1 3.6 15.6 55.6c0 0.4 0 0.8 0 1s0 0.2 0 0.4c0 0 0 0.6 0 0.8s0 0.2 0 0.2c0 0.4-0.2 0.6-0.4 1-0.2 0.2-0.4 0.6-0.6 0.8l-0.2 0.2c-0.2 0.2-0.4 0.4-0.6 0.4l-0.2 0.2c-0.2 0.2-0.6 0.4-0.8 0.4-0.2 0.2-0.6 0.2-0.8 0.2v0h-0.8c-0.2 0-0.6 0-1 0-0.2 0-0.6-0.2-0.8-0.2l-0.2-0.2-0.6-0.4-0.2-0.2c-0.2-0.2-0.6-0.6-0.8-0.8l-209.2-274.2c-0.4-0.6-0.6-1-0.8-1.6-0.4-0.6-0.6-1.4-0.6-2.2-0.2-0.8-0.2-1.8-0.2-2.6 0.2-3 1.6-5.6 4-7.4 0.4-0.2 0.8-0.4 1-0.6 1.2-0.6 2.4-0.8 3.8-0.8h123.2l-59.6-212.8c0-0.4 0-0.8 0-1.2 0 0 0-0.2 0-0.4s0-0.6 0.2-0.8c0 0 0-0.2 0-0.2 0-0.4 0.2-0.6 0.4-1 0.2-0.2 0.4-0.6 0.6-0.8l0.2-0.2 0.6-0.4c0 0 0.2 0 0.2-0.2 0.2-0.2 0.6-0.4 0.8-0.4 0.2-0.2 0.6-0.2 0.8-0.2h0.2c0.2 0 0.4 0 0.6 0h0.2c0.4 0 0.6 0 1 0.2 0.2 0 0.6 0.2 0.8 0.4l0.2 0.2 0.6 0.4 0.2 0.2c0.2 0.2 0.6 0.6 0.8 0.8l46.6 61 35 46 73 95.4zM639 446.2l-1-1.2-109-143h219.6c22 0 40 18 40 40v212c0 22-18 40-40 40h-200.6l-19.4-69.4h70.4c18 0 34.4-9.8 43-25.6 8.8-16.2 8-36-2-51.6l-1-1.2zM960 554.6c-17.6 0-32-14.4-32-32v-149.4c0-17.6 14.4-32 32-32s32 14.4 32 32v149.4c0 17.8-14.4 32-32 32z" />
<glyph unicode="&#xe93d;" glyph-name="battery-dead" data-tags="battery-dead" d="M770.6 192h-617.2c-68 0-123.4 55.4-123.4 123.4v265.2c0 68 55.4 123.4 123.4 123.4h617.2c68 0 123.4-55.4 123.4-123.4v-265.2c0-68-55.4-123.4-123.4-123.4zM153.4 640c-32.8 0-59.4-26.6-59.4-59.4v-265.2c0-32.8 26.6-59.4 59.4-59.4h617.2c32.8 0 59.4 26.6 59.4 59.4v265.2c0 32.8-26.6 59.4-59.4 59.4h-617.2zM990 373.4v149.4c0 17.6-14.4 32-32 32s-32-14.4-32-32v-149.4c0-17.6 14.4-32 32-32s32 14.2 32 32z" />
<glyph unicode="&#xe93e;" glyph-name="battery-full" data-tags="battery-full" d="M772.6 192h-617.2c-68 0-123.4 55.4-123.4 123.4v265.2c0 68 55.4 123.4 123.4 123.4h617.2c68 0 123.4-55.4 123.4-123.4v-265.2c0-68-55.4-123.4-123.4-123.4zM155.4 640c-32.8 0-59.4-26.6-59.4-59.4v-265.2c0-32.8 26.6-59.4 59.4-59.4h617.2c32.8 0 59.4 26.6 59.4 59.4v265.2c0 32.8-26.6 59.4-59.4 59.4h-617.2zM748.6 594.2h-569.2c-22 0-40-18-40-40v-212.2c0-22 18-40 40-40h569.2c22 0 40 18 40 40v212.2c0 22-18 40-40 40zM992 373.4v149.4c0 17.6-14.4 32-32 32s-32-14.4-32-32v-149.4c0-17.6 14.4-32 32-32s32 14.2 32 32z" />
<glyph unicode="&#xe93f;" glyph-name="battery-half" data-tags="battery-half" d="M772.6 704h-617.2c-68 0-123.4-55.4-123.4-123.4v-265.2c0-68 55.4-123.4 123.4-123.4h617.2c68 0 123.4 55.4 123.4 123.4v265.2c0 68-55.4 123.4-123.4 123.4zM832 315.4c0-32.8-26.6-59.4-59.4-59.4h-617.2c-32.8 0-59.4 26.6-59.4 59.4v265.2c0 32.8 26.6 59.4 59.4 59.4h617.2c32.8 0 59.4-26.6 59.4-59.4v-265.2zM512 554.2v-212.2c0-22-18-40-40-40h-292.6c-22 0-40 18-40 40v212.2c0 22 18 40 40 40h292.6c22 0 40-18 40-40zM992 522.6v-149.4c0-17.6-14.4-32-32-32s-32 14.4-32 32v149.4c0 17.6 14.4 32 32 32s32-14.2 32-32z" />
<glyph unicode="&#xe940;" glyph-name="beaker" data-tags="beaker" d="M888 896h-632c-38.8 0-91.8-8.6-128.2-49.6-23.4-26.2-31.8-57.8-31.8-78.4 0-16 11.8-29.6 27.6-31.6 59.8-8.4 68.4-12 68.4-48.4v-528c0-88.4 71.6-160 160-160h384c88.4 0.2 159.8 71.6 160 160v608c0 25.2 15 54.6 20 62.8l0.2 0.2c0.4 0.6 1 1.4 1.6 2.2 4 5.6 10.2 14 10.2 26 0 21.2-18.2 36.8-40 36.8zM168.2 793.8c10.4 17.8 34.4 38 88.6 38h588.8c-7-17.6-13.6-40.4-13.6-63.8v-128h-576v48c0 74.6-42.6 96.2-87.8 105.8z" />
<glyph unicode="&#xe941;" glyph-name="beaker-outline" data-tags="beaker-outline" d="M890.4 896h-634.4c-117.4 0-160-76.6-160-128 0-16 11.8-29.6 27.6-31.6 25-3.4 46.6-7 57.4-14 3.6-2.4 11-7.4 11-34.2v-528c0-88.2 71.8-160 160-160h384c88.2 0 160 71.8 160 160v607.8c0 25.6 15.6 55.6 20 62.4 0 0.2 0.2 0.2 0.2 0.4 0.4 0.6 1 1.4 1.6 2.2 4 5.6 10.2 14 10.2 26 0 21-16.2 36.8-37.6 37zM168 793.8c2 3.4 4.4 6.8 7.2 10.2 16.4 18.6 43.4 28 80.8 28h589.6c-7-17.6-13.6-40.4-13.6-64v-128h-576v48c0 74.8-42.8 96.4-88 105.8zM736 64h-384c-53 0-96 43-96 96v416h576v-416c0-53-43-96-96-96z" />
<glyph unicode="&#xe942;" glyph-name="bed" data-tags="bed" d="M864 498.6c-20.2 8.8-42 13.4-64 13.4h-576c-22 0-43.8-4.6-64-13.4v0c-58.2-25.4-96-83-96-146.6v-224c0-17.6 14.4-32 32-32s32 14.4 32 32v16c0.2 8.8 7.2 15.8 16 16h736c8.8-0.2 15.8-7.2 16-16v-16c0-17.6 14.4-32 32-32s32 14.4 32 32v224c0 63.6-37.8 121.2-96 146.6zM752 800h-480c-61.8 0-112-50.2-112-112v-144c0-4.4 3.6-8 8-8 0.8 0 1.4 0.2 2.2 0.4 17.4 5.2 35.6 7.6 53.8 7.6h8.4c4 0 7.6 3 8 7.2 3.6 32.2 31 56.8 63.6 56.8h112c32.6 0 60-24.6 63.6-56.8 0.4-4 4-7.2 8-7.2h49c4 0 7.6 3 8 7.2 3.6 32.4 31 56.8 63.4 56.8h112c32.6 0 60-24.6 63.6-56.8 0.4-4 4-7.2 8-7.2h8.4c18.2 0 36.4-2.6 53.8-7.8 4.2-1.2 8.6 1.2 10 5.4 0.2 0.8 0.4 1.4 0.4 2.2v144c-0.2 62-50.4 112.2-112.2 112.2z" />
<glyph unicode="&#xe943;" glyph-name="bed-outline" data-tags="bed-outline" d="M864 498.4v189.6c-0.2 61.6-50.4 111.8-112 112h-480c-61.6-0.2-111.8-50.4-112-112v-189.6c-56.2-24.8-95.8-81.2-96-146.4v-224c0-17.6 14.4-32 32-32s32 14.4 32 32v16c0 8.8 7.2 16 16 16h736c8.8 0 16-7.2 16-16v-16c0-17.6 14.4-32 32-32s32 14.4 32 32v224c-0.2 65.2-39.8 121.6-96 146.4zM256 512c0 17.6 14.4 32 32 32h160c17.6 0 32-14.4 32-32h-224zM544 512c0 17.6 14.4 32 32 32h160c17.6 0 32-14.4 32-32h-224zM272 736h480c26.4 0 48-21.6 48-48v-104.6c-17 15.2-39.4 24.6-64 24.6h-160c-24.6 0-47-9.4-64-24.6-17 15.2-39.4 24.6-64 24.6h-160c-24.6 0-47-9.4-64-24.6v104.6c0 26.4 21.6 48 48 48zM880 224h-736c-5.4 0-10.8-0.6-16-1.6v129.6c0.2 52.8 43.2 96 96 96h576c52.8-0.2 96-43.2 96-96v-129.6c-5.2 1-10.6 1.6-16 1.6z" />
<glyph unicode="&#xe944;" glyph-name="beer" data-tags="beer" d="M784 544h-48v11.4c46.8 53 41.8 133.8-11 180.4-22.6 20-51.4 31.4-81.6 32-10.2 35.6-29.2 68.2-55.2 94.6-41 42-97.4 65.6-156.2 65.4-59.8 0-115.6-24.6-158-69.4-59 18.8-122-13.8-140.8-72.8-8.6-27.2-6.6-56.6 5.6-82.4-52.8-46.8-57.6-127.6-10.8-180.4 9.2-10.2 19.8-19 31.8-25.8v-417c0-61.8 50.2-112 112-112h352c61.8 0 112 50.2 112 112v16h48c79.4 0 144 64.6 144 144v160c0.2 79.4-64.4 144-143.8 144zM352 128c0-17.6-14.4-32-32-32s-32 14.4-32 32v320c0 17.6 14.4 32 32 32s32-14.4 32-32v-320zM480 128c0-17.6-14.4-32-32-32s-32 14.4-32 32v320c0 17.6 14.4 32 32 32s32-14.4 32-32v-320zM608 128c0-17.6-14.4-32-32-32s-32 14.4-32 32v320c0 17.6 14.4 32 32 32s32-14.4 32-32v-320zM640 576c-16.6 0-41 10.4-53.4 22.6-6 6-14.2 9.4-22.6 9.4h-244c-13.4 0-25.4-8.4-30-21-13.6-37.4-47.2-43-66-43-35.4 0-64 28.6-64 64s28.6 64 64 64c0.2 0 18.2-0.6 32.8-11.6 14.2-10.6 34.2-7.8 44.8 6.4s7.8 34.2-6.4 44.8c0 0 0 0 0 0-20.8 15.2-45.6 23.6-71.2 24.4-9.4 0-18.8-1-28-3.2-10.6 24.4 0.6 52.6 24.8 63.2 6 2.6 12.6 4 19.2 4 15.4 0 29.8-7.2 38.8-19.6 3.6-5 6.8-10.2 9.4-15.8 1.8-17.6 17.6-30.4 35.2-28.4 16.4 1.8 28.6 15.6 28.6 32 0 13.6-7.2 30.4-21.6 50-1 1.2-2 2.6-2.8 3.8 29.2 27.2 65.6 42 104.4 42 41.6 0.2 81.4-16.6 110.4-46.4 36.4-37.4 52.4-90.2 42.8-141.6-3.4-17.4 8-34.2 25.4-37.4 0 0 0 0 0 0 2-0.4 4-0.6 6-0.6 15.4 0 28.6 11 31.4 26 2.4 12.8 3.8 25.8 4 38.8 34.8-6.6 57.4-40.2 50.8-74.8-5.8-30.2-32.2-52-62.8-52zM864 240c0-44.2-35.8-80-80-80h-48v320h48c44.2 0 80-35.8 80-80v-160z" />
<glyph unicode="&#xe945;" glyph-name="beer-outline" data-tags="beer-outline" d="M784 544h-48v11.4c19.8 22.6 32 52.2 32 84.6 0 69.4-55.6 126.2-124.6 128-10.2 35.4-28.8 67.8-55.2 94.6-41.6 42.2-97 65.4-156.2 65.4-59.8 0-115.6-24.6-158-69.4-38.8 12.2-83 3-113.6-27.8-34.2-34.4-41.2-85.8-21.4-127.2-26.4-23.4-43-57.6-43-95.6 0-47.2 25.8-88.6 64-110.8v-417.2c0.2-61.6 50.4-111.8 112-112h352c61.6 0.2 111.8 50.4 112 112v16h48c79.2 0.2 143.6 64.8 144 144v160c-0.2 79.2-64.8 143.8-144 144zM206 785.8c18.6 18.8 49 19 67.8 0.4 1.8-1.8 3.4-3.8 5-5.8 3.4-4.6 8-12.2 9.4-15.8 1.8-16 15.4-28.6 31.8-28.6 17.6 0 32 14.4 32 32 0 13.6-7.2 30.4-21.6 50-1 1.2-1.8 2.6-2.8 3.8 29.2 27.4 65.8 42.2 104.4 42.2 86 0 156-71 156-158.4 0-9.8-1-19.8-2.8-29.6-3.2-17.4 8.2-34.2 25.4-37.4 2-0.4 4-0.6 6-0.6 15 0 28.4 10.6 31.4 26 2.4 12.8 3.8 25.8 3.8 38.8 29.6-5.6 52-31.6 52-62.8 0-35.2-28.8-64-64-64-16.6 0-41.2 10.4-53.4 22.6-6 6-14.2 9.4-22.6 9.4h-243.8c-13.4 0-25.4-8.4-30-21-13.6-37.4-47.2-43-66-43-35.2 0-64 28.8-64 64 0 35 28.4 63.6 63.4 64 12.2-0.6 24-4.8 34-12 14.4-10.4 34.4-7 44.6 7.2 10.4 14.4 7 34.4-7.2 44.6-20.4 14.6-44.4 23-69.4 24-0.4 0-0.8 0-1.4 0-9.6 0-19-1-28-3.2-7.6 17.8-4.2 38.8 10 53.2zM672 80c0-26.4-21.6-48-48-48h-352c-26.4 0-48 21.6-48 48v400c51.2 0 93.2 23.6 116.4 64h211.6c24.4-19.2 58.8-32 88-32 11 0 21.8 1.4 32 4v-436zM864 240c-0.2-44-36-80-80-80h-48v320h48c44-0.2 80-36 80-80v-160zM480 448v-320c0-17.6-14.4-32-32-32s-32 14.4-32 32v320c0 17.6 14.4 32 32 32s32-14.4 32-32zM608 448v-320c0-17.6-14.4-32-32-32s-32 14.4-32 32v320c0 17.6 14.4 32 32 32s32-14.4 32-32zM352 448v-320c0-17.6-14.4-32-32-32s-32 14.4-32 32v320c0 17.6 14.4 32 32 32s32-14.4 32-32z" />
<glyph unicode="&#xe946;" glyph-name="bicycle" data-tags="bicycle" d="M776 64c-101.6 0-184 82.4-184 184s82.4 184 184 184 184-82.4 184-184c-0.2-101.6-82.4-183.8-184-184zM776 368c-66.2 0-120-53.8-120-120s53.8-120 120-120 120 53.8 120 120c0 66.2-53.8 120-120 120zM248 64c-101.6 0-184 82.4-184 184s82.4 184 184 184 184-82.4 184-184c-0.2-101.6-82.4-183.8-184-184zM248 368c-66.2 0-120-53.8-120-120s53.8-120 120-120 120 53.8 120 120c0 66.2-53.8 120-120 120zM640 704c35.2-0.2 63.8 28.4 64 63.6 0 0.2 0 0.4 0 0.6 0.4 34.8-27.6 63.4-62.4 63.8-0.4 0-0.8 0-1.2 0-35.4 0.2-64-28.4-64.2-63.8s28.4-64 63.8-64.2zM735 576h-87.6c-3 0-5.6 1.6-7 4.2l-63.4 116.4c-15.8 30.4-53.2 42.4-83.6 26.6-5.6-2.8-10.8-6.6-15.2-11v0l-139.8-140.8c-11.8-12-18.4-28-18.6-44.8 0-34.8 25.2-47.2 37-54.2 57-32.8 97.2-56.8 119.2-70.2 2.4-1.4 3.8-4 3.8-6.8v-138.2c0-17.2 13.2-32 30.4-32.8 17.6-0.8 32.6 12.8 33.6 30.4 0 0.4 0 1 0 1.4v172c0 10.4-5 20-13.4 26l-74 53.2c-3.6 2.6-4.4 7.6-1.8 11.2 0.2 0.2 0.4 0.6 0.6 0.8l84 89.6c3 3.2 8 3.4 11.4 0.4 0.6-0.6 1.2-1.2 1.6-2l43.6-78.8c5.6-10.2 16.4-16.4 28-16.4h112c17.6 0 32 14.2 32 32 0 0.6 0 1 0 1.6-0.6 17-15.4 30.2-32.8 30.2z" />
<glyph unicode="&#xe947;" glyph-name="bluetooth" data-tags="bluetooth" d="M776 638.4c0.4 11.2-3.8 22-11.8 29.8l-224 224c-15.6 15.6-41 15.6-56.6 0-7.6-7.6-11.8-17.6-11.8-28.4v-329l-158 135.4c-17.2 14-42.4 11.4-56.2-5.8-13.4-16.6-11.6-40.6 4.2-55l188.6-161.6-188.4-161.4c-17.2-14-19.8-39.2-5.8-56.2 14-17.2 39.2-19.8 56.2-5.8 0.6 0.4 1 0.8 1.6 1.4l158 135.4v-329.2c0-22 18-40 40-40 10.6 0 20.8 4.2 28.2 11.8l224 224c15.6 15.6 15.6 41 0 56.6-0.8 0.8-1.4 1.4-2.2 2l-188.6 161.6 188.6 161.6c8.4 7.2 13.6 17.8 14 28.8zM677.2 253.8l-125.2-125.2v232.4l125.2-107.2zM552 535v232.4l125.2-125.2-125.2-107.2z" />
<glyph unicode="&#xe948;" glyph-name="boat" data-tags="boat" d="M832 13.8c0 5-2.8 9.6-7.2 12-54.2 29-103.6 73.6-125.2 96-6.6 7-17.4 8.2-25.4 3-100.6-64.8-223.2-64.8-323.8 0-8.2 5.2-19 4-25.6-3.2-21.6-22.6-70.4-66.6-124.8-95.6-4.4-2.2-7.4-6.6-7.8-11.4-0.6-7.4 5-13.8 12.4-14.4 1.2 0 2.4 0 3.4 0.2 41.6 8.4 82 27.4 120.4 47.6 5 2.6 11 2.6 16 0.2 105.4-53.6 230.2-53.6 335.6 0 5 2.6 11.2 2.6 16.2-0.2 38.2-20 78.4-39.2 120-47.6 7.4-1.4 14.4 3.4 15.8 10.6 0 1 0 1.8 0 2.8v0zM953.4 466.2v0c-7 16.8-21.8 29.8-41.8 36.8l-47.6 19v166c0 70.6-57.4 128-128 128h-64v16c0 44.2-35.8 80-80 80h-160c-44.2 0-80-35.8-80-80v-16h-64c-70.6 0-128-57.4-128-128v-166.2l-47.2-18.8c-19.8-6.6-35.2-20-42.4-36.8-5-11.8-10.6-30-2.6-53l0.2-0.6 93.4-238.8c7-18 24.4-29.8 43.6-29.6 1 0 2 0 3 0 62.6 4 112 34.6 145.2 63.2 47.4-41 103.2-63.4 158.6-63.4s110.8 22.4 158.2 63.4c33.2-28.8 82.6-59.4 145.2-63.2 20.4-1.4 39.2 10.6 46.8 29.4l93.2 238c6.8 16.2 6.2 35.4-1.8 54.6zM538 651.6l-2.2 0.8c-15.4 4.8-32 4.8-47.4 0l-1.2-0.4-252.2-100.4c-4.2-1.6-8.8 0.4-10.4 4.4-0.4 1-0.6 2-0.6 3v129c0 35.4 28.6 64 64 64h448c35.4 0 64-28.6 64-64v-128.8c0-4.4-3.6-8-8-8-1 0-2 0.2-3 0.6l-251 99.8z" />
<glyph unicode="&#xe949;" glyph-name="boat-outline" data-tags="boat-outline" d="M953.4 450.2v0c-7 16.8-21.8 29.8-41.8 36.8l-47.6 19v166c-0.2 70.4-57.6 127.8-128 128h-64v16c-0.2 44-36 79.8-80 80h-160c-44-0.2-79.8-36-80-80v-16h-64c-70.4-0.2-127.8-57.6-128-128v-166.4l-47-18.8c-19.8-6.6-35.2-20-42.4-36.8-4.8-11.8-10.4-30-2.8-52.8l0.2-0.6 93.4-239 0.2-0.4c7.6-19 26.4-30.6 46.8-29.2 62.6 4 112 34.6 145 63.2 47.4-41 103.2-63.2 158.6-63.2 55.2 0 111 22.4 158.2 63.4 33.2-28.6 82.6-59.4 145-63.2 1.2 0 2.2-0.2 3.4-0.2 19 0 36 11.4 43.4 29.2l93.4 238.6c6.6 16 6 35.2-2 54.4zM416 816c0 8.8 7.2 16 16 16h160c8.8 0 16-7.2 16-16v-16h-192v16zM224 672c0.2 35.2 28.8 64 64 64h448c35.2-0.2 64-28.8 64-64v-140.6l-264.2 105c-15.6 4.8-32 4.8-47.4 0l-1.2-0.4-263.2-104.8v140.8zM385.8 248.4c-9 8.6-20.8 12.8-32.4 12.8s-23.4-4.2-32.4-12.8l-0.2-0.2c-23-22-59-48.4-104.6-55l-88 225.2c-0.4 1.2-0.4 2.4 1 6 0.6 0.4 2 1.2 4 2l1.2 0.4 345.6 137.4v-368.8c-32.8 7.2-65.4 25.2-94 52.6l-0.2 0.4zM807.4 193.2c-45.4 6.6-81.6 33-104.6 55l-0.2 0.2c-18.2 17-46.6 17-64.8 0l-0.2-0.2c-21.4-20.4-53.4-44-93.6-52.8v369l346.2-137.8c2.2-0.8 3.8-1.6 4.4-2 1-2.8 1.2-4.6 1.2-5.4l-88.4-226zM824.8 25.8c-54.2 29-103.6 73.6-125.2 96-6.6 7-17.4 8.2-25.4 3-100.6-64.8-223.2-64.8-324 0-8.2 5.2-19 4-25.6-3.2-21.6-22.6-70.4-66.6-124.8-95.6-4.4-2.2-7.4-6.6-7.8-11.4-0.6-7.4 5-13.8 12.4-14.4 1.2 0 2.4 0 3.4 0.2 41.8 8.4 82 27.4 120.4 47.6 5 2.6 11 2.6 16 0.2 105.4-53.6 230.2-53.6 335.8 0 5 2.6 11.2 2.6 16.2-0.2 38.2-20 78.4-39.2 120-47.6 7.2-1.4 14.4 3.4 15.6 10.8 0.2 0.8 0.2 1.8 0.2 2.6v0c0 5-2.8 9.6-7.2 12z" />
<glyph unicode="&#xe94a;" glyph-name="body" data-tags="body" d="M512 960c61.8 0 112-50.2 112-112s-50.2-112-112-112-112 50.2-112 112 50.2 112 112 112zM874 704h-724c-29.8 0-54-24.2-54-54s24.2-54 54-54h203.8c13.8 0 30-6.2 39.2-30 10.8-27.6 5.4-81-1.2-122.4l-8.6-49c0-0.2 0-0.6-0.2-0.8l-69.2-393.6c-5.2-29.8 14.6-58.2 44.2-63.4 29.4-5.2 57.6 14.4 62.8 43.8 0 0.2 0 0.4 0.2 0.8l47.8 273.6c0 0 15.4 65 43.4 65 28.4 0 43.4-65 43.4-65l47.8-273.8c4.8-29.8 32.8-49.8 62.4-45 29.8 4.8 49.8 32.8 45 62.4 0 0.6-0.2 1.2-0.4 1.8l-69 393.6c0 0.2 0 0.6-0.2 0.8l-8.6 49c-6.6 41.4-11.8 94.8-1.2 122.4 9.2 23.8 25.8 30 38.6 30h204c29.8 0 54 24.2 54 54s-24.2 53.8-54 53.8v0z" />
<glyph unicode="&#xe94b;" glyph-name="body-outline" data-tags="body-outline" d="M496 736c-61.8 0-112 50.2-112 112s50.2 112 112 112c61.8 0 112-50.2 112-112s-50.2-112-112-112zM496 896c-26.4 0-48-21.6-48-48s21.6-48 48-48c26.4 0 48 21.6 48 48s-21.6 48-48 48zM385.2-64c-4.4 0-8.6 0.4-13 1l-1.2 0.2c-21 3.8-39.2 15.4-51.4 32.8-12.2 17.6-17 38.8-13.2 59.8l60.8 344.2 9.8 59.2c6 38 6.4 88 0.8 102.6-2.6 6.6-10.4 8-16.6 8h-185.2c-44.2 0-80 35.8-80 80s35.8 80 80 80h672c44.2 0 80-35.8 80-80s-35.8-80-80-80h-184.8c-5 0-13.8-1-16.6-7.8-5.8-14.8-5.4-64.8 0.8-102.8l9.8-59 60.8-344.2c7.8-43.2-21.2-84.8-64.6-92.6s-84.8 21.2-92.6 64.6l-42 239.8 4.8 0.8-5-0.4c-1.4 8.6-3.8 18-6.4 26-2.6-8-5.2-17.6-6.6-26.2h-0.2l-42-240.2c-6.8-38.6-40.4-65.8-78.2-65.8zM382.6 0.2c8.4-1.4 16.4 4.2 17.8 12.6v0.4l42 239.8c4.6 28 20.2 91 66.4 91h6.2c46.8 0 62-63.2 66.4-91.2v0l42-239.8c1.6-8.6 9.8-14.2 18.4-12.8 8.6 1.6 14.4 9.8 12.8 18.4l-60.6 345-9.8 59.4c-4 25.6-11.6 99.4 2.8 136.2 11.6 30 40.8 48.8 76.2 48.8h184.8c8.8 0 16 7.2 16 16s-7.2 16-16 16h-672c-8.8 0-16-7.2-16-16s7.2-16 16-16h185c35.4 0 64.6-18.8 76.2-49 14.2-36.6 6.8-110.6 2.8-136l-9.8-60-60.8-344.4c-1-5.6 1.2-10 2.6-12s4.4-5.4 9.8-6.4h0.8z" />
<glyph unicode="&#xe94c;" glyph-name="bonfire" data-tags="bonfire" d="M546.8 223.2c-1.6 18.4-17.8 32.8-37.2 32.8-17.2 0.2-32.2-11.4-36.4-28.2l-36.4-176.8c-1.2-5.2-1.8-10.4-1.8-15.8 0-39.8 33.4-67.6 74.6-67.6s74.6 27.6 74.6 67.6c0 6.4-0.8 12.8-2.6 19l-34.8 169zM822 144.2c-3.8 3.2-7.6 6.2-12 8.8l-138.8 97c-13.6 8.4-28 8.2-38.6-2-9.4-9-11.2-23.4-4-34.4l105-138c2.4-3.4 5-6.4 8-9.4 18.2-20.4 58.6-21.4 80.8 0 21.8 22 21.6 60.8-0.4 78zM926.6 288.2h-140.8c-9 0-17.8-6.8-17.8-16.2s6-15.8 13.8-18.4l132.8-41c19.2-4.4 45.2 12.6 45.2 34.2 0.2 27-15 41.4-33.2 41.4zM256.4 271.8c0 10-9.2 16.2-18.8 16.2h-141c-17.8 0-32.8-19.2-32.8-40.6s25.2-39.6 44.6-35.2l134.8 41c9 3 13.2 8.8 13.2 18.6zM353.2 250l-139.2-96.8c-4.4-2.4-8.4-5.4-12-8.6-21.2-19.8-22.6-53.2-2.6-74.4 0.8-1 1.8-1.8 2.6-2.6 22.6-21.4 58-21.4 80.8 0 3 2.8 5.6 6 8 9.4l105 137.2c7 11.2 5.8 25-4 34-10.8 9.8-27 10.6-38.6 1.8zM587 475.2c20 10.8 39 21 56.6 32.4 85 53.8 124.4 118 124.4 202 0 129.4-112.2 208.8-217.6 218-13 1.2-30 0.8-39.8-7.8s-11.8-25.2-12.2-38.2c-2.8-67.2-56.8-118-114-171.8-56-52.6-113.8-107-125.4-182-16.8-109.4 43.4-173.4 81-201.8 11-8.4 24.6-13 38.6-13 5 0 10 0.6 14.8 1.8 18.6 4.4 34.2 16.8 42.6 34 29.6 60.6 91.2 94 151 126.4zM279.6 646.8c24.4 31.6 54 59.4 82.8 86.4 39.8 37.4 75.6 71.2 93 107.8-24.4 14.8-54.8 22.8-93 22.8-35.6 0-40.8-10.4-40.8-38.2 0-25.2-13-41-28.6-61.4-17.4-22.4-37-47.8-37-85.8 0-20.4 2.6-37.6 8.4-52.8 4.6 7 9.8 14.2 15.2 21.2zM660.6 480.6c-18.6-11.8-38-22.4-58.6-33.4-57.8-31.4-112.4-61-137.8-112.6-1.2-2.6-2.6-5-3.8-7.2-4.4-7.8-1.6-17.4 6.2-21.8 0.6-0.4 1-0.6 1.6-0.8 24.6-10.2 50.2-16.6 77.8-16.6 58.4-0.4 114.6 22.2 156.4 62.8 42 40.8 65.6 96.8 65.2 155.4 0 10-1 20-2.6 30-1.6 8.8-9.8 14.6-18.6 13-3.4-0.6-6.6-2.4-9-5-20-23-45.6-44.2-76.8-63.8z" />
<glyph unicode="&#xe94d;" glyph-name="bonfire-outline" data-tags="bonfire-outline" d="M546.8 223.4c-1.6 18.4-17.8 32.8-37.2 32.8-17.2 0.2-32.2-11.6-36.4-28.2v0l-36.4-176.8c-1.2-5.2-1.8-10.4-1.8-15.8 0-39.8 33.4-67.6 74.6-67.6s74.6 27.8 74.6 67.6c0 6.4-0.8 12.8-2.6 19l-34.8 169zM822 144.2c-3.8 3.2-7.6 6.2-12 8.8l-139 97.2c-13.6 8.6-28 8.2-38.6-2-9.4-9-11.2-23.4-4-34.4l105-138c2.4-3.4 5-6.4 8-9.4 18.2-20.4 58.6-21.4 80.8 0 22 21.8 21.8 60.6-0.2 77.8zM926.6 288.2h-140.8c-9 0-17.8-6.8-17.8-16.4s6-15.8 13.8-18.4l132.8-41c19.2-4.6 45.2 12.8 45.2 34.2 0.2 27.4-15 41.6-33.2 41.6zM256.4 272c0 10-9.2 16.4-18.8 16.4h-141c-17.8 0-32.8-19.2-32.8-40.6s25.2-39.6 44.6-35.2l134.8 41c9 2.6 13.2 8.4 13.2 18.4zM353.2 250l-139.2-96.8c-4.4-2.4-8.4-5.4-12-8.8-21.2-19.8-22.6-53.2-2.6-74.4 0.8-1 1.8-1.8 2.6-2.6 22.6-21.4 58-21.4 80.8 0 3 2.8 5.6 6 8 9.4l105 137.2c7 11.2 5.8 25-4 34.2-10.8 10-27 10.8-38.6 1.8zM768 709.8c0 129.4-112.2 208.8-217.6 218-26.4 2.4-49.6-17.2-52-43.6 0-0.8-0.2-1.6-0.2-2.6-1-21.8-7.2-41.8-17.2-60.8-28.2 28.6-65.6 41.8-118.2 43-21.2 0.8-39.2-15-41-36.2l-0.2-2c-0.6-25.2-13-41-28.6-61.4-17.2-22.4-36.8-47.8-36.8-85.8 0-35.6 7.8-61 26.8-84-11.6-20.4-20.2-42.4-24-66.6-16.8-109.4 43.4-173.4 80.8-202 11.6-8.8 25-13 38.6-13 14.8 0 29.6 5.2 41.2 15 36.8-25.8 80.8-39.8 126.6-39.8 0 0 0.2 0 0.2 0 59.4 0 114.8 22.2 156.4 62.8 42 41 65.2 96.2 65.2 155.4 0 38.8-13.6 72.2-26.8 97 18 32 26.8 67.2 26.8 106.6zM320 678.6c0 15.6 8.6 27.2 23.6 46.8 14.6 18.8 32 41.4 39 73.2 28.2-3.2 45.8-12.4 60-30.8-17.6-19.4-37.6-38.4-58.2-57.8-20.8-19.4-41.8-39.2-60.6-60.2-2.6 7.4-3.8 16.4-3.8 28.8zM322.2 518.2c8.2 53.2 55.8 97.8 106 145.2 57.2 53.8 121.6 114.4 132.6 198.6 72.2-12.6 143.2-67.2 143.2-152.2 0-43.6-11.2-95.2-94.8-148-15.8-10-33.8-19.8-52.8-30.2-65.2-35.4-139.2-75.4-178-154.4-32 24.2-67.6 68.4-56.2 141zM546.2 352.2c0 0 0 0 0 0-32.8 0-64 10-90.2 28.4 33 41.6 82.6 68.4 131 94.6 20 10.8 38.8 21 56.6 32.4 20 12.8 37.6 26 52.8 40.2 5.2-14.4 7.8-28 7.8-41.4-0.2-86.4-69.4-154.2-158-154.2z" />
<glyph unicode="&#xe94e;" glyph-name="book" data-tags="book" d="M404.4 812c-72.2 34.4-173.2 51.4-308.4 52v0c-12.8 0.2-25.2-3.6-35.8-10.6-17.6-12-28.2-32-28.2-53.2v-572.2c0-38.6 27.6-67.8 64-67.8 142.2 0 284.8-13.2 370.2-94 3.2-3.2 8.4-3 11.6 0.4 1.4 1.6 2.2 3.6 2.2 5.6v674.2c0 9.2-4 18-11 24-19.4 16.6-41.2 30.6-64.6 41.6zM963.8 853.4c-10.6 7-23 10.8-35.8 10.6v0c-135.2-0.6-236.2-17.4-308.4-52-23.4-10.8-45-24.8-64.6-41.6-7-6-11-14.8-11-24v-674.2c0-4.4 3.6-7.8 7.8-7.8 2 0 4 0.8 5.6 2.2 51.4 51 141.4 93.6 370.8 93.6 35.4 0 64 28.6 64 64v576c0 21.4-10.6 41.2-28.4 53.2z" />
<glyph unicode="&#xe94f;" glyph-name="bookmark" data-tags="bookmark" d="M800 0c-7.8 0-15.4 2.8-21.2 8l-266.8 237.2-266.8-237.2c-13.2-11.8-33.4-10.6-45.2 2.6-5.2 5.8-8.2 13.4-8 21.4v736c0 70.6 57.4 128 128 128h384c70.6 0 128-57.4 128-128v-736c0-17.6-14.4-32-32-32z" />
<glyph unicode="&#xe950;" glyph-name="bookmark-outline" data-tags="bookmark-outline" d="M800 0c-7.6 0-15.2 2.8-21.2 8l-266.8 237.2-266.8-237.2c-9.4-8.4-22.8-10.4-34.4-5.2-11.4 5.2-18.8 16.6-18.8 29.2v736c0 70.6 57.4 128 128 128h384c70.6 0 128-57.4 128-128v-736c0-12.6-7.4-24-18.8-29.2-4.2-1.8-8.8-2.8-13.2-2.8zM512 320c7.6 0 15.2-2.6 21.2-8l234.8-208.8v664.8c0 35.2-28.8 64-64 64h-384c-35.2 0-64-28.8-64-64v-664.8l234.8 208.8c6 5.4 13.6 8 21.2 8z" />
<glyph unicode="&#xe951;" glyph-name="bookmarks" data-tags="bookmarks" d="M800 960h-448c-58.4 0-109.4-39.6-124-96h456c81.8 0 148-66.2 148-148v-609.8l44-35.2c11.2-9 27-9.4 38.6-1 8.6 6.2 13.4 16.2 13.4 26.8v735.2c0 70.6-57.4 128-128 128zM640 800h-416c-70.6 0-128-57.4-128-128v-703.2c-0.2-10.6 4.8-20.4 13.2-26.8 12-8.6 28.2-8 39.4 1.4l283.4 238.8 283.4-238.6c11.2-9.4 27.4-10 39.2-1.6 8.6 6.2 13.6 16.2 13.4 26.8v703.2c0 70.6-57.4 128-128 128z" />
<glyph unicode="&#xe952;" glyph-name="bookmarks-outline" data-tags="bookmarks-outline" d="M800 960h-448c-70.4-0.2-127.8-57.6-128-128v-32c-70.4-0.2-127.8-57.6-128-128v-704c0-12.4 7.2-23.8 18.6-29 11.2-5.2 24.6-3.4 34.2 4.6l283.2 238.6 283.4-238.6c5.8-5 13.2-7.6 20.6-7.6 4.6 0 9.2 1 13.4 3 11.2 5.2 18.6 16.6 18.6 29v189.4l108-86.4c5.8-4.6 12.8-7 20-7 4.8 0 9.4 1 13.8 3.2 11 5.4 18.2 16.6 18.2 28.8v736c-0.2 70.4-57.6 127.8-128 128zM704 36.8l-251.4 211.6c-12 10-29.4 10-41.2 0l-251.4-211.6v635.2c0.2 35.2 28.8 64 64 64h416c35.2-0.2 64-28.8 64-64v-635.2zM864 162.6l-96 76.8v432.6c-0.2 70.4-57.6 127.8-128 128 0 0 0 0 0 0h-352v32c0.2 35.2 28.8 64 64 64h448c35.2-0.2 64-28.8 64-64v-669.4z" />
<glyph unicode="&#xe953;" glyph-name="book-outline" data-tags="book-outline" d="M928.2 864c0 0-0.2 0-0.2 0-135.2-0.6-236-17.6-308.4-52.2-47.4-22.6-83-52.8-107.6-91-24.4 38.2-60.2 68.2-107.6 91-72.2 34.6-173 51.6-308.4 52.2h-0.4c-17 0-33-6.8-45-18.8-12-12.2-18.6-28.2-18.6-45.2v-572.2c0-38.6 27.6-67.8 64-67.8 262.2 0 342.8-55.8 391-116 0 0 0 0 0.2-0.2 0.8-0.8 1.4-1.8 2.2-2.6 0 0 0.2-0.2 0.2-0.2 0.8-0.8 1.4-1.4 2.2-2 0.2-0.2 0.6-0.4 0.8-0.6 0.6-0.4 1.2-1 1.8-1.4 0.4-0.2 0.6-0.4 1-0.6 0.6-0.4 1.4-0.8 2-1.2 0.4-0.2 0.6-0.4 1-0.4 0.8-0.4 1.4-0.6 2.2-1 0.4-0.2 0.6-0.2 1-0.4 0.8-0.2 1.6-0.4 2.4-0.6 0.4 0 0.6-0.2 1-0.2 0.8-0.2 1.6-0.4 2.6-0.4 0.2 0 0.6 0 0.8-0.2 1.2-0.2 2.2-0.2 3.4-0.2 0 0 0 0 0 0s0 0 0 0c1.2 0 2.4 0 3.4 0.2 0.2 0 0.6 0 0.8 0.2 0.8 0.2 1.8 0.2 2.6 0.4 0.4 0 0.6 0.2 1 0.2 0.8 0.2 1.6 0.4 2.4 0.6 0.4 0.2 0.6 0.2 1 0.4 0.8 0.2 1.4 0.6 2.2 1 0.4 0.2 0.6 0.4 1 0.4 0.6 0.4 1.4 0.8 2 1.2 0.4 0.2 0.6 0.4 1 0.6 0.6 0.4 1.4 0.8 2 1.4 0.2 0.2 0.6 0.4 0.8 0.6 0.8 0.6 1.6 1.4 2.2 2 0 0 0.2 0.2 0.2 0.2 0.8 0.8 1.6 1.6 2.2 2.6 0 0 0 0 0.2 0.2 48.2 60.2 129 116 391 116 35.2 0 64 28.8 64 64v576.4c0 35.2-28.6 63.6-63.6 63.6zM96.6 224c-0.2 0.8-0.6 2-0.6 3.8v572.2c299-1.4 363.4-87.6 384-164.2v-496.8c-80.8 59.6-199 85-383.4 85zM928 224c-184.6 0-303.2-25.4-384-85v496.8c20.6 76.6 85 162.8 384 164.2v-576z" />
<glyph unicode="&#xe954;" glyph-name="briefcase" data-tags="briefcase" d="M992 608c0 70.6-57.4 128-128 128h-96v32c0 53-43 96-96 96h-320c-53 0-96-43-96-96v-32h-96c-70.6 0-128-57.4-128-128v-96h960v96zM704 736h-384v32c0 17.6 14.4 32 32 32h320c17.6 0 32-14.4 32-32v-32zM672 432c0-26.6-21.4-48-48-48h-224c-26.6 0-48 21.4-48 48v8c0 4.4-3.6 8-8 8h-312v-288c0-70.6 57.4-128 128-128h704c70.6 0 128 57.4 128 128v288h-312c-4.4 0-8-3.6-8-8v-8z" />
<glyph unicode="&#xe955;" glyph-name="briefcase-outline" data-tags="briefcase-outline" d="M864 736h-96v32c0 53-43 96-96 96h-320c-53 0-96-43-96-96v-32h-96c-70.6 0-128-57.4-128-128v-448c0-70.6 57.4-128 128-128h704c70.6 0 128 57.4 128 128v448c0 70.6-57.4 128-128 128zM320 768c0 17.6 14.4 32 32 32h320c17.6 0 32-14.4 32-32v-32h-384v32zM160 672h704c35.2 0 64-28.8 64-64v-96h-832v96c0 35.2 28.8 64 64 64zM864 96h-704c-35.2 0-64 28.8-64 64v288h256v-16c0-26.4 21.6-48 48-48h224c26.4 0 48 21.6 48 48v16h256v-288c0-35.2-28.8-64-64-64z" />
<glyph unicode="&#xe956;" glyph-name="browsers" data-tags="browsers" d="M832 864h-640c-70.6 0-128-57.4-128-128v-576c0-70.6 57.4-128 128-128h640c70.6 0 128 57.4 128 128v576c0 70.6-57.4 128-128 128zM880 672h-736c-8.8 0-16 7.2-16 16v48c0 35.4 28.6 64 64 64h640c35.4 0 64-28.6 64-64v-48c0-8.8-7.2-16-16-16z" />
<glyph unicode="&#xe957;" glyph-name="browsers-outline" data-tags="browsers-outline" d="M832 864h-640c-70.6 0-128-57.4-128-128v-576c0-70.6 57.4-128 128-128h640c70.6 0 128 57.4 128 128v576c0 70.6-57.4 128-128 128zM896 160c0-35.2-28.8-64-64-64h-640c-35.2 0-64 28.8-64 64v448c0 32 32 64 64 64h640c32 0 64-32 64-64v-448z" />
<glyph unicode="&#xe958;" glyph-name="brush" data-tags="brush" d="M466.2 239.8c-3.4 0-6.6 0.6-9.8 1.6-11.6 3.8-20.2 13.8-21.8 26-4.2 30-39.8 65-73.2 71.8-17.4 3.6-28.4 20.6-24.8 37.8 1.2 5.6 3.8 10.6 7.4 14.8l422.2 470c0.4 0.4 0.8 0.8 1.2 1.2 44.2 44 115.6 44 159.8 0v0c44-44 44.2-115.4 0.2-159.6l-438-454c-6-6-14.4-9.6-23.2-9.6zM239.8-0.2c-64.2 0-130.8 33.8-169.6 86-10.6 14.2-7.6 34.2 6.6 44.8 5.6 4 12.2 6.4 19 6.4 10.6 0 40 9.8 40 41.2 0 78.2 62.8 141.8 140 141.8s140-63.6 140-141.8c0-98.4-79-178.4-176-178.4z" />
<glyph unicode="&#xe959;" glyph-name="brush-outline" data-tags="brush-outline" d="M466.6 240c-3.2 0-6.6 0.6-9.8 1.6-11.6 3.8-20.2 13.8-21.8 26-4.2 30-39.8 65-73.2 71.6-11.2 2.2-20.4 10.4-24 21.4s-1 22.8 6.6 31.4l422 470.2c0.4 0.4 0.8 0.8 1.2 1.2 44 44 115.8 44 159.8 0 0 0 0 0 0 0 44-44 44-115.4 0.2-159.6l-438-454c-6.2-6.4-14.6-9.8-23-9.8zM422 382.8c22.2-13.4 41.6-32.2 55.4-53.4l404.4 419.2c0.2 0.2 0.2 0.2 0.4 0.4 19 19 19 50.2 0 69.2v0c-19 19-49.6 19-68.8 0.6l-391.4-436zM240 0c-64.2 0-130.8 33.8-169.6 86-7.2 9.8-8.4 22.6-2.8 33.4 5.4 10.8 16.4 17.6 28.6 17.6 13.6 0 40 12.4 40 41.2 0 78.2 62.8 141.8 140 141.8s140-63.6 140-141.8c-0.2-98.2-79.2-178.2-176.2-178.2zM154.8 92.2c25-17.8 55.6-28.2 85.2-28.2 61.8 0 112 51.2 112 114.2 0 42.8-34 77.8-76 77.8s-76-34.8-76-77.8c0-30.8-12.6-58.8-35.8-78.8-3-2.4-6.2-5-9.4-7.2z" />
<glyph unicode="&#xe95a;" glyph-name="bug" data-tags="bug" d="M927 415.8h-127v96.4c0 5.8-0.2 11.4-0.6 17 59.2 55.8 64.6 129.2 64.6 206 0 17.2-13.2 32-30.6 32.8-17.6 0.8-32.6-12.8-33.4-30.4 0-0.4 0-1 0-1.4 0-56-3.8-96.2-19.8-127.6-38.4 82.2-131.6 127.8-268.2 127.8-79.6 0-148.4-18.2-198.8-52.8-29.8-20.4-52.4-45.8-67.4-75.4-17.8 30.8-21.8 70-21.8 127.2 0 17.2-13.2 32-30.4 32.8-17.6 0.8-32.6-12.8-33.6-30.4 0-0.6 0-1 0-1.6 0-75.2 5.2-147.4 64.8-203.2-0.6-6.8-0.8-13.6-0.8-20.6v-96.4h-127c-17.2 0-32-13.2-32.8-30.4-0.8-17.6 12.8-32.6 30.4-33.6 0.6 0 1 0 1.6 0h128v-32c0-36.8 7-73.2 20.8-107.4-51.4-46-84.4-96.6-84.8-179.2 0-17.4 13.2-32.6 30.8-33.2 17.6-0.8 32.6 13 33.2 30.6 0 0.4 0 0.8 0 1.2 0 55.4 18.2 89.4 52.4 122.6 39.4-56 97.4-96.2 163.6-113.4 17.2-4.4 34.6 5.8 39 23 0.6 2.6 1 5.2 1 8v503c0 17.2 13.2 32 30.4 32.8 17.6 0.8 32.6-12.8 33.6-30.4 0-0.6 0-1 0-1.6v-503.8c0-17.6 14.4-32 32-32 2.6 0 5.4 0.4 8 1 66.2 17.2 124.2 57.4 163.6 113.4 34-33 52.2-67 52.4-122-0.2-17.2 13-31.6 30.2-32.8 17.6-1 32.8 12.4 33.8 30.2 0 0.6 0 1.2 0 1.8 0 83.4-33.2 134.4-84.8 180.6 13.8 34.2 20.8 70.6 20.8 107.4v31.8h128c17.6 0 32 14.2 32 32 0 0.6 0 1 0 1.6-1 17.2-15.8 30.6-33.2 30.6zM642.8 752l0.6-0.2c27.2-7.6 50.2 21.2 36.4 45.6-33.8 60.8-97.8 98.6-167.4 98.6h-0.8c-70.2 0-134.8-38.6-168.4-100.2-13.6-25.2 10.2-54 37.6-45.8 39.4 12 83.6 18.2 131.2 18.2 48.2 0 92.2-5.6 130.8-16.2z" />
<glyph unicode="&#xe95b;" glyph-name="bug-outline" data-tags="bug-outline" d="M928 415.8h-128v96.4c0 5.8-0.2 11.4-0.6 17 59.4 56 64.6 129.8 64.6 207 0 17.6-14.4 32-32 32s-32-14.4-32-32c0-56-3.8-96.4-19.8-127.6-16.2 34.8-42.2 63-77.2 84 0.4 3.6 0.8 7.2 1 10.8 0 0.4 0 0.8 0 1.4-0.2 105.4-86.2 191.2-191.6 191.4h-1c-105.4-0.2-191.2-86.2-191.4-191.4 0-0.6 0-1.2 0-1.6 0.2-4.8 0.8-9.4 1.4-14-2.8-1.8-5.6-3.6-8.4-5.4-29.8-20.4-52.4-45.8-67.4-75.4-17.8 31-21.8 70.4-21.8 128 0 17.6-14.4 32-32 32s-32-14.4-32-32c0-75.2 5.2-147.4 64.8-203.2-0.6-6.8-0.8-13.6-0.8-20.6v-96.4h-127.8c-17.6 0-32-14.4-32-32s14.4-32 32-32h128v-32.2c0-38 7.4-74.2 20.8-107.4-51.6-46.2-84.8-97.2-84.8-180.6 0-17.6 14.4-32 32-32s32 14.4 32 32c0 55.4 18.2 89.4 52.4 122.6 52-74 138.2-122.6 235.6-122.6s183.6 48.6 235.6 122.6c34.2-33.2 52.4-67.4 52.4-122.6 0-17.6 14.4-32 32-32s32 14.4 32 32c0 83.4-33.2 134.4-84.8 180.6 13.4 33.2 20.8 69.4 20.8 107.4v31.8h128c17.6 0 32 14.4 32 32s-14.4 32-32 32zM511.6 832h0.8c65-0.2 118.8-49.2 126.6-112.2-36.6 10.8-79.2 16.4-127 16.4-46.6 0-89.6-6.4-127.2-18.4 6.8 63.8 61.2 114 126.8 114.2zM544 98.2v477.8c0 17.6-14.4 32-32 32s-32-14.4-32-32v-477.8c-72.2 10.4-133.4 55.4-166.2 117.6-0.6 1.6-1.6 3.4-2.6 4.8-14.8 30-23.2 63.6-23.2 99.2v192.2c0 50.8 20.6 90.6 61.2 118.4 39.2 26.8 97 41.6 162.8 41.6 102.2 0 224-27.8 224-160v-192c0-35.6-8.4-69.2-23.2-99.2-1-1.6-1.8-3.2-2.6-4.8-32.8-62.4-94-107.4-166.2-117.8z" />
<glyph unicode="&#xe95c;" glyph-name="build" data-tags="build" d="M939 719v0c-8 15.8-27.4 22-43 13.8-3-1.6-5.6-3.4-8-5.8l-122.8-123c-12.6-12.4-32.8-12.4-45.2 0l-53.2 53.2c-12.4 12.4-12.6 32.8 0 45.2 0 0 0 0 0 0l122.4 122.4c12.4 12.4 12.4 32.8 0 45.2-2.8 2.8-6 5-9.6 6.6v0c-92.4 41.4-207.8 19.8-280.6-52.4-61.8-61.4-80.2-157.2-50.6-263 3.2-11.6-0.2-23.8-9-32l-333-304c-52.8-47.4-57.2-128.4-9.8-181.2s128.4-57.2 181.2-9.8c3.4 3 6.6 6.4 9.8 9.8l307.4 333.6c8 8.6 20.2 12.2 31.6 9.2 30.2-8.2 61.2-12.6 92.4-12.8 66.8 0 125.4 21.6 167.8 63.2 78.4 77.2 90.2 208 52.2 281.8zM199 65.8c-35.2-3.8-66.8 21.6-70.6 56.6-3.8 35.2 21.6 66.8 56.6 70.6 35.2 3.8 66.8-21.6 70.6-56.6 0.6-4.6 0.6-9.2 0-13.8-3.2-30-26.8-53.6-56.6-56.8z" />
<glyph unicode="&#xe95d;" glyph-name="build-outline" data-tags="build-outline" d="M192-0.4c-2.6 0-5.2 0-7.8 0.2-34.2 2-65.6 17.4-88.4 43-46.8 52.8-42 134 10.8 181l333 304c8.8 8.2 12.2 20.4 9 32-29.8 105.8-11.4 201.6 50.6 263 71.6 71 185.6 93.2 277.4 53.8 4.2-1.8 8-4.4 11-7.6 6.4-6.6 9.6-15.2 9.6-24.2-0.2-9-3.8-17.2-10-23.4l-120.2-120.2c-12.4-12.4-12.4-32.8 0-45.4l53-53c12.4-12.4 32.8-12.4 45.2 0l120.8 121c2.6 2.6 5.6 4.8 8.8 6.4 8 4 17.4 4.8 26 1.8 8.6-2.8 15.6-9 19.6-17l0.2-0.4c18.6-38.2 24-89.4 15.2-140.6-9.4-54.4-34-103.4-69-138-60.8-60-155.6-78.4-260.2-50.4-11.4 3-23.4-0.4-31.4-9.2l-307.4-333.8c-3.4-3.8-7-7.4-10.6-10.6-23.8-21.2-53.8-32.4-85.2-32.4zM680.8 831.8c-50.2 0-101.2-19.2-136.6-54.4-63.8-63.2-45-161.2-34-200.4 9.8-34.8-0.6-71.8-27.2-96.4l-0.2-0.2-333.6-304.4c-26.6-23.6-29-64.2-5.4-90.8 11.4-12.8 27.2-20.6 44.2-21.6 17.2-1 33.6 4.6 46.6 16 2 1.6 3.8 3.6 5.4 5.4l0.4 0.4 307.8 334c24.2 26.2 60.6 36.6 95 27.6 38.8-10.4 135.8-27.8 198.8 34.2 41.4 40.8 58.4 107.8 53 160.6l-84.6-84.6c-37.4-37.2-98.2-37.2-135.6 0l-53.2 53.2c-37.2 37.4-37.2 98.4 0 135.8l84 84c-8.4 1.2-16.6 1.6-24.8 1.6zM787.8 580v0 0zM931.4 678.4v0c-0.2 0 0 0 0 0zM192 160c17.6 0 32-14.4 32-32s-14.4-32-32-32-32 14.4-32 32 14.4 32 32 32z" />
<glyph unicode="&#xe95e;" glyph-name="bulb" data-tags="bulb" d="M576 32h-128c-17.6 0-32-14.4-32-32s14.4-32 32-32h128c17.6 0 32 14.4 32 32s-14.4 32-32 32zM608 128h-192c-17.6 0-32-14.4-32-32s14.4-32 32-32h192c17.6 0 32 14.4 32 32s-14.4 32-32 32zM738.8 834.6c-60 60.2-140.6 93.4-226.8 93.4-176.4 0.4-319.6-142.2-320-318.4 0-0.6 0-1 0-1.6 0-93.2 35.8-180.4 98-239.2l8.8-8.2c36-33.6 85.2-79.8 85.2-120.6v-48c0-17.6 14.4-32 32-32h48c8.8 0 16 7.2 16 16v234.4c0 6.6-4 12.6-10.2 15-18.4 7.6-36 17.2-52.4 28.8-14.8 9.6-19.2 29.2-9.8 44.2 9.6 14.8 29.2 19.2 44.2 9.8 1-0.6 1.8-1.2 2.8-2 14.8-10.4 43.2-26 57.4-26s42.6 15.6 57.4 26c15 9.4 34.8 5 44.2-10 8.6-13.8 5.6-31.8-7-42-16.2-11.6-33.8-21.2-52.4-28.6-6.2-2.4-10.2-8.4-10.2-15v-234.6c0-8.8 7.2-16 16-16h48c17.6 0 32 14.4 32 32v48c0 39.8 48.8 85.8 84.2 119.6l9.8 9.4c64 61.2 97.8 144 97.8 239.2 0.6 84.8-33 166.4-93 226.4z" />
<glyph unicode="&#xe95f;" glyph-name="bulb-outline" data-tags="bulb-outline" d="M832 608c0-95.2-33.8-178-97.8-239.2-3.2-3-6.6-6.2-10-9.4-35.6-33.6-84.2-79.6-84.2-119.4v-48c0-17.6-14.4-32-32-32s-32 14.4-32 32v48c0 67.2 60.2 124.2 104.2 165.8 3.4 3.2 6.6 6.2 9.8 9.2 51 49 78 115.6 78 193 0 143.6-112.4 256-256 256-0.2 0-0.4 0-0.8 0-140.4 0-254.8-114-255.2-254.4v-1.4c0-75.8 28.4-146 78-192.8 2.8-2.6 5.6-5.2 8.6-8 44.6-41.6 105.6-98.8 105.6-167.2v-48c0-17.6-14.4-32-32-32s-32 14.4-32 32v48c0 40.8-49.2 86.8-85.2 120.6-3 2.8-5.8 5.6-8.8 8.2-62.4 58.8-98 146-98 239.2v1.8c0.2 175.4 143.4 318 319 318 0.4 0 0.6 0 1 0 86 0 166.6-33.2 226.8-93.4 60-60.2 93-140.6 93-226.6zM576 32h-128c-17.6 0-32-14.4-32-32s14.4-32 32-32h128c17.6 0 32 14.4 32 32s-14.4 32-32 32zM608 128h-192c-17.6 0-32-14.4-32-32s14.4-32 32-32h192c17.6 0 32 14.4 32 32s-14.4 32-32 32zM512 160c17.6 0 32 14.4 32 32v229.4c30.2 9.4 56.8 28.2 63 33 14.2 10.6 17.2 30.6 6.6 44.8s-30.6 17.2-44.8 6.6c-14-10.4-41.6-25.6-57-25.6-15 0-43 15.4-57 25.6-14.2 10.6-34.2 7.6-44.8-6.6s-7.6-34.2 6.6-44.8c6.4-4.8 32.8-23.6 63-33v-229.4c0.4-17.6 14.8-32 32.4-32z" />
<glyph unicode="&#xe960;" glyph-name="bus" data-tags="bus" d="M800 896h-576c-53 0-96-43-96-96v-640c0-27.2 11.6-53.2 32-71.4v-36.6c0-28.8 23.2-52 52-52v0h56c28.8 0 52 23.2 52 52v0 12h384v-12c0-28.8 23.2-52 52-52v0h56c28.8 0 52 23.2 52 52v0 36.6c20.4 18.2 32 44.2 32 71.4v640c0 53-43 96-96 96zM295 160.4c-35.2-3.8-66.8 21.6-70.6 56.8s21.6 66.8 56.8 70.6c35.2 3.8 66.8-21.6 70.6-56.8 0.6-4.6 0.6-9.2 0-13.8-3.4-30-27-53.6-56.8-56.8zM472 384h-248c-17.6 0-32 14.4-32 32v256c0 17.6 14.4 32 32 32h248c4.4 0 8-3.6 8-8v-304c0-4.4-3.6-8-8-8zM512 768h-287c-17.2 0-32 13.2-32.8 30.4-0.8 17.6 12.6 32.6 30.4 33.6 0.6 0 1 0 1.6 0h575c17.2 0 32-13.2 32.8-30.4 0.8-17.6-12.6-32.6-30.4-33.6-0.6 0-1 0-1.6 0h-288zM552 704h248c17.6 0 32-14.4 32-32v-256c0-17.6-14.4-32-32-32h-248c-4.4 0-8 3.6-8 8v304c0 4.4 3.6 8 8 8zM672.4 217c-3.8 35.2 21.6 66.8 56.8 70.6s66.8-21.6 70.6-56.8c3.8-35.2-21.6-66.8-56.8-70.6-4.6-0.6-9.2-0.6-13.8 0-30 3.4-53.6 27-56.8 56.8z" />
<glyph unicode="&#xe961;" glyph-name="business" data-tags="business" d="M864 608h-224v224c0 53-43 96-96 96h-384c-53 0-96-43-96-96v-832c0-17.6 14.4-32 32-32h208c8.8 0 16 7.2 16 16v143c0 17.2 13.2 32 30.4 32.8 17.6 0.8 32.6-12.8 33.6-30.4 0-0.6 0-1 0-1.6v-144c0-8.8 7.2-16 16-16h528c17.6 0 32 14.4 32 32v512.2c0 53-43 96-96 96zM196.2 96.2c-17.6-2.2-33.6 10-35.8 27.6s10 33.6 27.6 35.8c17.6 2.2 33.6-10 35.8-27.6 0.4-2.8 0.4-5.6 0-8.2-2-14.4-13.2-25.6-27.6-27.6zM196.2 256.2c-17.6-2.2-33.6 10-35.8 27.6s10 33.6 27.6 35.8c17.6 2.2 33.6-10 35.8-27.6 0.4-2.8 0.4-5.6 0-8.2-2-14.4-13.2-25.6-27.6-27.6zM196.2 416.2c-17.6-2.2-33.6 10-35.8 27.6s10 33.6 27.6 35.8 33.6-10 35.8-27.6c0.4-2.8 0.4-5.6 0-8.2-2-14.4-13.2-25.6-27.6-27.6zM196.2 576.2c-17.6-2.2-33.6 10-35.8 27.6s10 33.6 27.6 35.8c17.6 2.2 33.6-10 35.8-27.6 0.4-2.8 0.4-5.6 0-8.2-2-14.4-13.2-25.6-27.6-27.6zM196.2 736.2c-17.6-2.2-33.6 10-35.8 27.6s10 33.6 27.6 35.8c17.6 2.2 33.6-10 35.8-27.6 0.4-2.8 0.4-5.6 0-8.2-2-14.4-13.2-25.6-27.6-27.6zM356.2 256.2c-17.6-2.2-33.6 10-35.8 27.6s10 33.6 27.6 35.8c17.6 2.2 33.6-10 35.8-27.6 0.4-2.8 0.4-5.6 0-8.2-2-14.4-13.2-25.6-27.6-27.6zM356.2 416.2c-17.6-2.2-33.6 10-35.8 27.6s10 33.6 27.6 35.8c17.6 2.2 33.6-10 35.8-27.6 0.4-2.8 0.4-5.6 0-8.2-2-14.4-13.2-25.6-27.6-27.6zM356.2 576.2c-17.6-2.2-33.6 10-35.8 27.6s10 33.6 27.6 35.8 33.6-10 35.8-27.6c0.4-2.8 0.4-5.6 0-8.2-2-14.4-13.2-25.6-27.6-27.6zM356.2 736.2c-17.6-2.2-33.6 10-35.8 27.6s10 33.6 27.6 35.8c17.6 2.2 33.6-10 35.8-27.6 0.4-2.8 0.4-5.6 0-8.2-2-14.4-13.2-25.6-27.6-27.6zM516.2 96.2c-17.6-2.2-33.6 10-35.8 27.6s10 33.6 27.6 35.8c17.6 2.2 33.6-10 35.8-27.6 0.4-2.8 0.4-5.6 0-8.2-2-14.4-13.2-25.6-27.6-27.6v0zM516.2 256.2c-17.6-2.2-33.6 10-35.8 27.6s10 33.6 27.6 35.8c17.6 2.2 33.6-10 35.8-27.6 0.4-2.8 0.4-5.6 0-8.2-2-14.4-13.2-25.6-27.6-27.6v0zM516.2 416.2c-17.6-2.2-33.6 10-35.8 27.6s10 33.6 27.6 35.8c17.6 2.2 33.6-10 35.8-27.6 0.4-2.8 0.4-5.6 0-8.2-2-14.4-13.2-25.6-27.6-27.6v0zM516.2 576.2c-17.6-2.2-33.6 10-35.8 27.6s10 33.6 27.6 35.8c17.6 2.2 33.6-10 35.8-27.6 0.4-2.8 0.4-5.6 0-8.2-2-14.4-13.2-25.6-27.6-27.6v0zM516.2 736.2c-17.6-2.2-33.6 10-35.8 27.6s10 33.6 27.6 35.8 33.6-10 35.8-27.6c0.4-2.8 0.4-5.6 0-8.2-2-14.4-13.2-25.6-27.6-27.6v0zM888 32h-248v512h224c17.6 0 32-14.4 32-32v-472c0-4.4-3.6-8-8-8zM800 160c-17.6 0-32-14.4-32-32s14.4-32 32-32 32 14.4 32 32-14.4 32-32 32zM800 320c-17.6 0-32-14.4-32-32s14.4-32 32-32 32 14.4 32 32-14.4 32-32 32zM800 480c-17.6 0-32-14.4-32-32s14.4-32 32-32 32 14.4 32 32c0 17.6-14.4 32-32 32zM672 160c-17.6 0-32-14.4-32-32s14.4-32 32-32 32 14.4 32 32-14.4 32-32 32zM672 320c-17.6 0-32-14.4-32-32s14.4-32 32-32 32 14.4 32 32-14.4 32-32 32zM672 480c-17.6 0-32-14.4-32-32s14.4-32 32-32 32 14.4 32 32c0 17.6-14.4 32-32 32z" />
<glyph unicode="&#xe962;" glyph-name="business-outline" data-tags="business-outline" d="M864 608h-224v224c0 53-43 96-96 96h-384c-53 0-96-43-96-96v-832c0-17.6 14.4-32 32-32h504c1.4 0 2.8 0 4.2 0.2 1.2-0.2 2.4-0.2 3.8-0.2h320c17.6 0 32 14.4 32 32v512c0 53-43 96-96 96zM128 832c0 17.6 14.4 32 32 32h384c17.6 0 32-14.4 32-32v-800h-192v96c0 17.6-14.4 32-32 32s-32-14.4-32-32v-96h-192v800zM896 32h-256v512h224c17.6 0 32-14.4 32-32v-480zM196.2 96.2c-17.6-2.2-33.6 10-35.8 27.6s10 33.6 27.6 35.8c17.6 2.2 33.6-10 35.8-27.6 0.4-2.8 0.4-5.6 0-8.2-2-14.4-13.2-25.6-27.6-27.6zM196.2 256.2c-17.6-2.2-33.6 10-35.8 27.6s10 33.6 27.6 35.8c17.6 2.2 33.6-10 35.8-27.6 0.4-2.8 0.4-5.6 0-8.2-2-14.4-13.2-25.6-27.6-27.6zM196.2 416.2c-17.6-2.2-33.6 10-35.8 27.6s10 33.6 27.6 35.8 33.6-10 35.8-27.6c0.4-2.8 0.4-5.6 0-8.2-2-14.4-13.2-25.6-27.6-27.6zM196.2 576.2c-17.6-2.2-33.6 10-35.8 27.6s10 33.6 27.6 35.8c17.6 2.2 33.6-10 35.8-27.6 0.4-2.8 0.4-5.6 0-8.2-2-14.4-13.2-25.6-27.6-27.6zM196.2 736.2c-17.6-2.2-33.6 10-35.8 27.6s10 33.6 27.6 35.8c17.6 2.2 33.6-10 35.8-27.6 0.4-2.8 0.4-5.6 0-8.2-2-14.4-13.2-25.6-27.6-27.6zM356.2 256.2c-17.6-2.2-33.6 10-35.8 27.6s10 33.6 27.6 35.8c17.6 2.2 33.6-10 35.8-27.6 0.4-2.8 0.4-5.6 0-8.2-2-14.4-13.2-25.6-27.6-27.6zM356.2 416.2c-17.6-2.2-33.6 10-35.8 27.6s10 33.6 27.6 35.8c17.6 2.2 33.6-10 35.8-27.6 0.4-2.8 0.4-5.6 0-8.2-2-14.4-13.2-25.6-27.6-27.6zM356.2 576.2c-17.6-2.2-33.6 10-35.8 27.6s10 33.6 27.6 35.8 33.6-10 35.8-27.6c0.4-2.8 0.4-5.6 0-8.2-2-14.4-13.2-25.6-27.6-27.6zM356.2 736.2c-17.6-2.2-33.6 10-35.8 27.6s10 33.6 27.6 35.8c17.6 2.2 33.6-10 35.8-27.6 0.4-2.8 0.4-5.6 0-8.2-2-14.4-13.2-25.6-27.6-27.6zM516.2 96.2c-17.6-2.2-33.6 10-35.8 27.6s10 33.6 27.6 35.8c17.6 2.2 33.6-10 35.8-27.6 0.4-2.8 0.4-5.6 0-8.2-2-14.4-13.2-25.6-27.6-27.6zM516.2 256.2c-17.6-2.2-33.6 10-35.8 27.6s10 33.6 27.6 35.8c17.6 2.2 33.6-10 35.8-27.6 0.4-2.8 0.4-5.6 0-8.2-2-14.4-13.2-25.6-27.6-27.6zM516.2 416.2c-17.6-2.2-33.6 10-35.8 27.6s10 33.6 27.6 35.8c17.6 2.2 33.6-10 35.8-27.6 0.4-2.8 0.4-5.6 0-8.2-2-14.4-13.2-25.6-27.6-27.6zM489.4 630.6c12.4 12.4 32.8 12.4 45.2-0.2s12.6-32.8 0.2-45.2c-12.4-12.4-32.8-12.4-45.2 0.2s-12.8 32.8-0.2 45.2zM516.2 736.2c-17.6-2.2-33.6 10-35.8 27.6s10 33.6 27.6 35.8 33.6-10 35.8-27.6c0.4-2.8 0.4-5.6 0-8.2-2-14.4-13.2-25.6-27.6-27.6zM800 160c-17.6 0-32-14.4-32-32s14.4-32 32-32 32 14.4 32 32-14.4 32-32 32zM800 320c-17.6 0-32-14.4-32-32s14.4-32 32-32 32 14.4 32 32-14.4 32-32 32zM800 480c-17.6 0-32-14.4-32-32s14.4-32 32-32 32 14.4 32 32c0 17.6-14.4 32-32 32zM672 160c-17.6 0-32-14.4-32-32s14.4-32 32-32 32 14.4 32 32-14.4 32-32 32zM672 320c-17.6 0-32-14.4-32-32s14.4-32 32-32 32 14.4 32 32-14.4 32-32 32zM672 480c-17.6 0-32-14.4-32-32s14.4-32 32-32 32 14.4 32 32c0 17.6-14.4 32-32 32z" />
<glyph unicode="&#xe963;" glyph-name="bus-outline" data-tags="bus-outline" d="M896 800c-0.2 52.8-43.2 95.8-96 96h-576c-52.6-0.2-95.6-43-96-95.8 0 0 0 0 0-0.2v-640c0-28.4 12.4-53.8 32-71.4v-36.6c0-28.6 23.4-52 52-52h56c28.6 0 52 23.4 52 52v12h384v-12c0-28.6 23.4-52 52-52h56c28.6 0 52 23.4 52 52v36.6c19.6 17.6 32 43.2 32 71.4v640c0 0 0 0 0 0s0 0 0 0zM288 128h-64c-17.6 0-32 14.4-32 32v128c0 17.6 14.4 32 32 32h576c17.6 0 32-14.4 32-32v-128c0-17.6-14.4-32-32-32h-512zM800 704c17.6 0 32-14.4 32-32v-256c0-17.6-14.4-32-32-32h-256v320h256zM480 384h-256c-17.6 0-32 14.4-32 32v256c0 17.6 14.4 32 32 32h256v-320zM224 832h576c17.6 0 32-14.4 32-32s-14.4-32-32-32h-576c-17.6 0-32 14.4-32 32s14.4 32 32 32zM800 224c0-35.2-28.8-64-64-64s-64 28.8-64 64 28.8 64 64 64 64-28.8 64-64zM352 224c0-35.2-28.8-64-64-64s-64 28.8-64 64 28.8 64 64 64 64-28.8 64-64z" />
<glyph unicode="&#xe964;" glyph-name="cafe" data-tags="cafe" d="M864 832h-672c-17.6 0-32-14.4-32-32v-384c0.2-106 86-191.8 192-192h224c106 0.2 191.8 86 192 192v160h36c68.4 0 124 55.6 124 124v68c0 35.4-28.6 64-64 64zM864 700c0-33.2-26.8-60-60-60v0h-36v128h96v-68zM800 160h-672c-17.6 0-32-14.4-32-32s14.4-32 32-32h672c17.6 0 32 14.4 32 32s-14.4 32-32 32z" />
<glyph unicode="&#xe965;" glyph-name="cafe-outline" data-tags="cafe-outline" d="M864 832h-672c-17.6 0-32-14.4-32-32v-384c0-105.8 86.2-192 192-192h224c105.8 0 192 86.2 192 192v160h36c68.4 0 124 55.6 124 124v68c0 35.2-28.8 64-64 64zM704 416c0-70.6-57.4-128-128-128h-224c-70.6 0-128 57.4-128 128v352h480v-352zM864 700c0-33-27-60-60-60h-36v128h96v-68zM832 128c0-17.6-14.4-32-32-32h-672c-17.6 0-32 14.4-32 32s14.4 32 32 32h672c17.6 0 32-14.4 32-32z" />
<glyph unicode="&#xe966;" glyph-name="calculator" data-tags="calculator" d="M832 800c0 53-43 96-96 96h-448c-53 0-96-43-96-96v-704c0-53 43-96 96-96h448c53 0 96 43 96 96v704zM336 96c-26.6 0-48 21.4-48 48s21.4 48 48 48 48-21.4 48-48-21.4-48-48-48zM336 256c-26.6 0-48 21.4-48 48s21.4 48 48 48 48-21.4 48-48-21.4-48-48-48zM336 416c-26.6 0-48 21.4-48 48s21.4 48 48 48 48-21.4 48-48c0-26.6-21.4-48-48-48zM512 96c-26.6 0-48 21.4-48 48s21.4 48 48 48c26.6 0 48-21.4 48-48s-21.4-48-48-48zM512 256c-26.6 0-48 21.4-48 48s21.4 48 48 48c26.6 0 48-21.4 48-48s-21.4-48-48-48zM512 416c-26.6 0-48 21.4-48 48s21.4 48 48 48c26.6 0 48-21.4 48-48s-21.4-48-48-48zM736 144c0-26.6-21.4-48-48-48s-48 21.4-48 48v160c0 26.6 21.4 48 48 48s48-21.4 48-48v-160zM688 416c-26.6 0-48 21.4-48 48s21.4 48 48 48 48-21.4 48-48c0-26.6-21.4-48-48-48zM726.6 617.4c-6-6-14.2-9.4-22.6-9.4h-384c-17.6 0-32 14.4-32 32v128c0 17.6 14.4 32 32 32h384c17.6 0 32-14.4 32-32v-128c0-8.4-3.4-16.6-9.4-22.6z" />
<glyph unicode="&#xe967;" glyph-name="calculator-outline" data-tags="calculator-outline" d="M736 0h-448c-53 0-96 43-96 96v704c0 53 43 96 96 96h448c53 0 96-43 96-96v-704c0-53-43-96-96-96zM288 832c-17.6 0-32-14.4-32-32v-704c0-17.6 14.4-32 32-32h448c17.6 0 32 14.4 32 32v704c0 17.6-14.4 32-32 32h-448zM704 576h-384c-17.6 0-32 14.4-32 32v128c0 17.6 14.4 32 32 32h384c17.6 0 32-14.4 32-32v-128c0-17.6-14.4-32-32-32zM352 640h320v64h-320v-64zM336 512c26.6 0 48-21.4 48-48s-21.4-48-48-48-48 21.4-48 48c0 26.6 21.4 48 48 48zM512 512c26.6 0 48-21.4 48-48s-21.4-48-48-48c-26.6 0-48 21.4-48 48s21.4 48 48 48zM688 512c26.6 0 48-21.4 48-48s-21.4-48-48-48-48 21.4-48 48c0 26.6 21.4 48 48 48zM336 352c26.6 0 48-21.4 48-48s-21.4-48-48-48-48 21.4-48 48 21.4 48 48 48zM512 352c26.6 0 48-21.4 48-48s-21.4-48-48-48c-26.6 0-48 21.4-48 48s21.4 48 48 48zM336 192c26.6 0 48-21.4 48-48s-21.4-48-48-48-48 21.4-48 48 21.4 48 48 48zM512 192c26.6 0 48-21.4 48-48s-21.4-48-48-48c-26.6 0-48 21.4-48 48s21.4 48 48 48zM688 352v0c26.6 0 48-21.4 48-48v-160c0-26.6-21.4-48-48-48v0c-26.6 0-48 21.4-48 48v160c0 26.6 21.4 48 48 48z" />
<glyph unicode="&#xe968;" glyph-name="calendar" data-tags="calendar" d="M832 832h-32v31c0 17.2-13.2 32-30.4 32.8-17.6 0.8-32.6-12.8-33.6-30.4 0-0.6 0-1 0-1.6v-32h-448v31.2c0 17.2-13.2 32-30.4 32.8-17.6 0.8-32.6-12.8-33.6-30.4 0-0.6 0-1 0-1.6v-32h-32c-70.6 0-128-57.4-128-128v-576c0-70.6 57.4-128 128-128h640c70.6 0 128 57.4 128 128v576.2c0 70.6-57.4 128-128 128zM272 128c-26.6 0-48 21.4-48 48s21.4 48 48 48 48-21.4 48-48-21.4-48-48-48zM272 288c-26.6 0-48 21.4-48 48s21.4 48 48 48 48-21.4 48-48-21.4-48-48-48zM432 128c-26.6 0-48 21.4-48 48s21.4 48 48 48 48-21.4 48-48-21.4-48-48-48zM432 288c-26.6 0-48 21.4-48 48s21.4 48 48 48 48-21.4 48-48-21.4-48-48-48zM592 128c-26.6 0-48 21.4-48 48s21.4 48 48 48 48-21.4 48-48-21.4-48-48-48zM592 288c-26.6 0-48 21.4-48 48s21.4 48 48 48 48-21.4 48-48-21.4-48-48-48zM592 448c-26.6 0-48 21.4-48 48s21.4 48 48 48 48-21.4 48-48-21.4-48-48-48v0zM752 288c-26.6 0-48 21.4-48 48s21.4 48 48 48 48-21.4 48-48-21.4-48-48-48zM752 448c-26.6 0-48 21.4-48 48s21.4 48 48 48 48-21.4 48-48-21.4-48-48-48v0zM896 688v-32c0-8.8-7.2-16-16-16h-736c-8.8 0-16 7.2-16 16v48c0 35.4 28.6 64 64 64h640c35.4 0 64-28.6 64-64v-16z" />
<glyph unicode="&#xe969;" glyph-name="calendar-outline" data-tags="calendar-outline" d="M832 832h-32v32c0 17.6-14.4 32-32 32s-32-14.4-32-32v-32h-448v32c0 17.6-14.4 32-32 32s-32-14.4-32-32v-32h-32c-70.6 0-128-57.4-128-128v-576c0-70.6 57.4-128 128-128h640c70.6 0 128 57.4 128 128v576c0 70.6-57.4 128-128 128zM896 128c0-35.2-28.8-64-64-64h-640c-35.2 0-64 28.8-64 64v416c0 32 32 64 64 64h640c32 0 64-32 64-64v-416zM640 496c0-26.51-21.49-48-48-48s-48 21.49-48 48c0 26.51 21.49 48 48 48s48-21.49 48-48zM800 496c0-26.51-21.49-48-48-48s-48 21.49-48 48c0 26.51 21.49 48 48 48s48-21.49 48-48zM640 336c0-26.51-21.49-48-48-48s-48 21.49-48 48c0 26.51 21.49 48 48 48s48-21.49 48-48zM800 336c0-26.51-21.49-48-48-48s-48 21.49-48 48c0 26.51 21.49 48 48 48s48-21.49 48-48zM320 336c0-26.51-21.49-48-48-48s-48 21.49-48 48c0 26.51 21.49 48 48 48s48-21.49 48-48zM480 336c0-26.51-21.49-48-48-48s-48 21.49-48 48c0 26.51 21.49 48 48 48s48-21.49 48-48zM320 176c0-26.51-21.49-48-48-48s-48 21.49-48 48c0 26.51 21.49 48 48 48s48-21.49 48-48zM480 176c0-26.51-21.49-48-48-48s-48 21.49-48 48c0 26.51 21.49 48 48 48s48-21.49 48-48zM640 176c0-26.51-21.49-48-48-48s-48 21.49-48 48c0 26.51 21.49 48 48 48s48-21.49 48-48z" />
<glyph unicode="&#xe96a;" glyph-name="call" data-tags="call" d="M782 0c-39 0-93.8 14.2-176 60-99.8 56-177.2 107.8-276.4 206.8-95.8 95.6-142.4 157.6-207.6 276.4-73.6 134-61.2 204.2-47 234.2 16.6 35.8 41.4 57.2 73.2 78.6 18.2 11.8 37.2 22 57.2 30.4 2 0.8 3.8 1.6 5.6 2.4 9.8 4.4 24.8 11.2 44 4 12.6-4.8 24-14.6 41.8-32 36.4-35.8 86-115.6 104.4-154.8 12.2-26.4 20.4-43.8 20.4-63.4 0-22.8-11.6-40.6-25.6-59.6-2.6-3.6-5.2-7-7.8-10.4-15.2-20-18.6-25.8-16.4-36.2 4.4-20.8 37.8-82.4 92.4-137s114.6-85.8 135.4-90.2c10.8-2.2 16.6 1.2 37.2 17 3 2.2 6 4.6 9.2 7 21.4 15.8 38.2 27 60.6 27h0.2c19.4 0 36.2-8.4 63.8-22.4 36-18.2 118.2-67.2 154.2-103.6 17.6-17.6 27.4-29 32-41.6 7.2-19 0.4-34-4-44-0.8-1.6-1.6-3.4-2.4-5.6-8.4-20-18.6-39-30.6-57.2-21.2-31.8-42.8-56.4-78.8-73.2-18.4-8.4-38.6-12.8-59-12.6z" />
<glyph unicode="&#xe96b;" glyph-name="call-outline" data-tags="call-outline" d="M782 0c-39 0-93.8 14.2-176 60-100 56-177.2 107.8-276.4 206.8-95.6 95.6-142.2 157.6-207.6 276.2-73.8 134-61.2 204.4-47.2 234.4 16.8 35.8 41.6 57.2 73.4 78.6 18 11.8 37.2 22 57 30.4 2.2 1 4 1.8 5.8 2.6 10 4.4 24.8 11.2 44 4 12.6-4.8 24-14.6 41.6-32 36.2-35.6 86-115.6 104.4-154.8 12.4-26.4 20.4-44 20.4-63.4 0-23-11.6-40.6-25.6-59.6-2.6-3.6-5.2-7-7.6-10.2-15.2-20-18.6-25.8-16.4-36.2 4.2-19.4 36.4-81.2 92.4-137 53.4-53.2 112.4-85.2 135.4-90.2 10.8-2.2 16.6 1.2 37.4 17 3 2.2 6 4.6 9.2 7 21.4 15.8 38.2 27 60.6 27 0 0 0 0 0 0 19.4 0 36-8.4 63.6-22.2 36-18.2 118.2-67.2 154.4-103.6v0c17.6-17.8 27.2-29 32-41.6 7.2-19 0.4-34-4-44-0.8-1.6-1.6-3.6-2.4-5.6-8.4-19.8-18.6-39-30.4-56.8-21.2-32-42.8-56.6-78.8-73.4-15.2-7.4-34-13.4-59.2-13.4zM236 830c-1.8-0.8-4-1.8-6.2-2.6-16-6.8-31.6-15-46.4-24.8-28.2-18.8-41.4-32.4-50.8-52.2-4-8.6-20.4-57 45.2-176.2 62.8-114 105-170.2 196.8-261.8 94.8-94.4 165.4-141.8 262.8-196.4 124-69.4 162.2-51.6 176.6-45 20 9.4 33.8 22.6 52.6 50.8 9.6 14.6 18 30.2 24.8 46.4 0.8 2 1.8 4 2.6 6-2.6 3-7 8-14.6 15.6v0c-27.2 27.4-98.4 71.8-137.6 91.4-15 7.6-30.6 15.4-35 15.4-3.8-0.8-17.8-11-22.4-14.4-3-2.2-5.8-4.4-8.4-6.4-23-17.6-48.8-37.4-89.6-28.6-37.6 8-107.2 47.6-167.2 107.4-60.8 60.6-101.8 132.2-109.8 169-8.6 40.2 10.8 65.8 28 88.4 2.2 3 4.6 6 7 9.4 8.6 11.8 13.2 19.2 13 21.6 0 5.4-7.8 22-14.4 36.6-15.8 33.8-62 107.6-91.2 136.2-7.8 7-12.6 11.4-15.8 14.2z" />
<glyph unicode="&#xe96c;" glyph-name="camera" data-tags="camera" d="M512 544c70.6 0 128-57.4 128-128s-57.4-128-128-128-128 57.4-128 128 57.4 128 128 128zM864 672h-118c-6 0-13.4 3.8-19.2 10l-51.8 81.8c-0.8 1.2-1.8 2.6-2.8 3.6-18 21-42.2 32.6-68.2 32.6h-184c-26 0-50.2-11.6-68.2-32.4-1-1.2-2-2.4-2.8-3.6l-51.8-82c-4.4-4.8-10.6-10-17.2-10v16c0 17.6-14.4 32-32 32h-48c-17.6 0-32-14.4-32-32v-16h-8c-53 0-96-43-96-96v-384c0-53 43-96 96-96h704c53 0 96 43 96 96v384c0 53-43 96-96 96zM512 224c-106 0-192 86-192 192s86 192 192 192 192-86 192-192c-0.2-106-86-191.8-192-192z" />
<glyph unicode="&#xe96d;" glyph-name="camera-outline" data-tags="camera-outline" d="M864 672h-118c-6 0-13.6 3.8-19.2 10l-51.8 81.8c-0.8 1.4-1.8 2.6-2.8 3.8-18 20.8-42.2 32.4-68.2 32.4h-184c-26 0-50.2-11.6-68.2-32.4-1-1.2-2-2.4-2.8-3.8l-51.8-82c-4.4-4.8-10.6-10-17.2-10v16c0 17.6-14.4 32-32 32h-48c-17.6 0-32-14.4-32-32v-16h-8c-53 0-96-43-96-96v-384c0-53 43-96 96-96h704c53 0 96 43 96 96v384.2c0 53-43 96-96 96zM896 192c0-17.6-14.4-32-32-32h-704c-17.6 0-32 14.4-32 32v384c0 17.6 14.4 32 32 32h120c25 0 48.2 11.6 67.2 33.8 1 1.2 2 2.4 2.8 3.8l51.8 81.8c4 4.2 10.2 8.6 18.2 8.6h184c8 0 14.2-4.4 18.2-8.6l51.8-81.8c0.8-1.2 1.8-2.6 2.8-3.8 18.4-21.4 43.6-33.8 69.2-33.8h118c17.6 0 32-14.4 32-32v-384zM512 608c-105.8 0-192-86.2-192-192s86.2-192 192-192 192 86.2 192 192-86.2 192-192 192zM512 288c-70.6 0-128 57.4-128 128s57.4 128 128 128c70.6 0 128-57.4 128-128s-57.4-128-128-128z" />
<glyph unicode="&#xe96e;" glyph-name="camera-reverse" data-tags="camera-reverse" d="M864 672h-118c-6 0-13.4 3.8-19.2 10l-51.8 81.8c-0.8 1.2-1.8 2.6-2.8 3.6-18 21-42.2 32.6-68.2 32.6h-184c-26 0-50.2-11.6-68.2-32.4-1-1.2-2-2.4-2.8-3.6l-51.8-82c-4.4-4.8-10.6-10-17.2-10v16c0 17.6-14.4 32-32 32h-48c-17.6 0-32-14.4-32-32v-16h-8c-53 0-96-43-96-96v-384c0-53 43-96 96-96h704c53 0 96 43 96 96v384c0 53-43 96-96 96zM633.6 267.4c-82.2-67.2-203.2-55-270.4 27.2-21.4 26.2-35.6 57.8-41 91.2-16.8-5.6-35 3.2-40.6 20-4 11.6-1 24.2 7.6 32.8l40 40c12.4 12.4 32.8 12.4 45.2 0l40-40c12.4-12.6 12.4-32.8 0-45.2-6-6-14.2-9.4-22.6-9.4-1.4 0-2.6 0.2-4 0.2 17.6-68.6 87.4-109.8 156-92.2 18 4.6 35 13.2 49.4 25 13.6 11.2 33.8 9.2 45-4.4s9.2-33.8-4.4-45c0 0 0-0.2-0.2-0.2v0zM734.6 393.4l-40-40c-12.4-12.4-32.8-12.4-45.2 0l-40 40c-12.4 12.6-12.4 32.8 0 45.2 6.8 6.8 16.4 10.2 26.2 9.2-17.6 68.4-87.2 109.8-155.8 92.2-18.2-4.6-35.2-13.4-49.8-25.4-13.2-11.8-33.4-10.4-45.2 2.8s-10.4 33.4 2.8 45.2c0.6 0.4 1 1 1.6 1.4 81.8 67.6 202.8 56.2 270.4-25.6 22-26.6 36.4-58.4 41.6-92.4 16.6 6 35-2.8 40.8-19.4 4.2-11.6 1.4-24.6-7.4-33.2v0z" />
<glyph unicode="&#xe96f;" glyph-name="camera-reverse-outline" data-tags="camera-reverse-outline" d="M864 672h-118c-6 0-13.6 3.8-19.2 10l-51.8 81.8c-0.8 1.4-1.8 2.6-2.8 3.8-18 20.8-42.2 32.4-68.2 32.4h-184c-26 0-50.2-11.6-68.2-32.4-1-1.2-2-2.4-2.8-3.8l-51.8-82c-4.4-4.8-10.6-10-17.2-10v16c0 17.6-14.4 32-32 32h-48c-17.6 0-32-14.4-32-32v-16h-8c-53 0-96-43-96-96v-384c0-53 43-96 96-96h704c53 0 96 43 96 96v384.2c0 53-43 96-96 96zM896 192c0-17.6-14.4-32-32-32h-704c-17.6 0-32 14.4-32 32v384c0 17.6 14.4 32 32 32h120c25 0 48.2 11.6 67.2 33.8 1 1.2 2 2.4 2.8 3.8l51.8 81.8c4 4.2 10.2 8.6 18.2 8.6h184c8 0 14.2-4.4 18.2-8.6l51.8-81.8c0.8-1.2 1.8-2.6 2.8-3.8 18.4-21.4 43.6-33.8 69.2-33.8h118c17.6 0 32-14.4 32-32v-384zM638.2 312.6c11.2-13.6 9.2-33.8-4.4-45-34.2-28-77.4-43.6-121.6-43.6 0 0 0 0-0.2 0-95.6 0-175.2 70.2-189.6 161.8-11.2-3.8-24-1.4-33 7.6-12.4 12.4-12.4 32.8 0 45.2l40 40c12.4 12.4 32.8 12.4 45.2 0l40-40c12.4-12.4 12.4-32.8 0-45.2-6.2-6.2-14.4-9.4-22.6-9.4-1.4 0-2.6 0.2-4 0.2 14.2-55.4 64.4-96.4 124-96.4 0 0 0 0 0 0 29.4 0 58.2 10.4 81 29 13.8 11.4 34 9.4 45.2-4.2zM734.6 438.6c12.4-12.4 12.4-32.8 0-45.2l-40-40c-6.2-6.2-14.4-9.4-22.6-9.4s-16.4 3.2-22.6 9.4l-40 40c-12.4 12.4-12.4 32.8 0 45.2 7.2 7.2 16.8 10.2 26.2 9.2-5.6 22-17 42.4-33.6 58.8-24.2 24.2-56.4 37.4-90.4 37.4 0 0 0 0 0 0-29.8 0-58.6-10.4-81.6-29.4-13.6-11.2-33.8-9.4-45 4.2s-9.4 33.8 4.2 45c34.4 28.4 77.8 44 122.4 44 0 0 0 0 0 0 51.2 0 99.4-20 135.8-56.2 29.2-29.2 47.8-66 54-105.8 11 4.4 24.2 1.8 33.2-7.2z" />
<glyph unicode="&#xe970;" glyph-name="car" data-tags="car" d="M895.4 518.4c-0.4 2.2-1.2 4.2-2 6.2l-75.6 176.4c-17.4 40.8-59.8 67-108 67h-395.6c-48.2 0-90.6-26.4-108-67l-75.6-176.4c-1.8-4-2.6-8.2-2.6-12.6v-352c0-17.6 14.4-32 32-32h64c17.6 0 32 14.4 32 32v32h512v-32c0-17.6 14.4-32 32-32h64c17.6 0 32 14.4 32 32v352c0 2.2-0.2 4.4-0.6 6.4zM288 320c-35.4 0-64 28.6-64 64s28.6 64 64 64 64-28.6 64-64-28.6-64-64-64zM736 320c-35.4 0-64 28.6-64 64s28.6 64 64 64 64-28.6 64-64-28.6-64-64-64zM208.6 544l56.4 131.8c7.2 17 27 28.2 49.2 28.2h395.6c22.2 0 42-11.4 49.2-28.2l56.4-131.8h-606.8z" />
</font>
</defs>
</svg>
